<?xml version="1.0" standalone="no"?>
<!DOCTYPE svg PUBLIC "-//W3C//DTD SVG 20010904//EN"
 "http://www.w3.org/TR/2001/REC-SVG-20010904/DTD/svg10.dtd">
<svg version="1.0" xmlns="http://www.w3.org/2000/svg"
 width="1286.000000pt" height="1812.000000pt" viewBox="0 0 1286.000000 1812.000000"
 preserveAspectRatio="xMidYMid meet">

<g transform="translate(0.000000,1812.000000) scale(0.100000,-0.100000)"
fill="#000000" stroke="none">
<path d="M6398 17033 c-25 -43 -56 -99 -69 -125 -13 -27 -26 -48 -30 -48 -5 0
-27 13 -51 29 -52 35 -153 81 -179 81 -12 0 -21 -12 -28 -37 -21 -74 -10 -155
33 -254 6 -14 1 -15 -56 -3 -35 8 -95 14 -134 14 -62 0 -81 -5 -143 -36 -92
-46 -124 -89 -129 -178 -3 -51 0 -67 20 -96 78 -117 328 -125 374 -13 9 20 13
47 9 61 -6 23 -4 24 27 18 82 -16 198 -92 198 -130 0 -6 -20 -19 -45 -29 -103
-43 -147 -143 -87 -200 28 -27 99 -57 134 -57 17 0 16 -4 -10 -42 -15 -24 -34
-58 -41 -76 -8 -18 -27 -43 -43 -57 -48 -41 -88 -42 -215 -5 -185 53 -264 52
-349 -7 l-38 -25 -77 21 c-44 12 -106 21 -147 21 l-70 0 19 -50 c10 -28 19
-62 19 -76 0 -48 23 -104 57 -139 39 -40 41 -47 11 -41 -13 3 -49 10 -81 16
-66 13 -121 54 -143 107 -10 23 -14 81 -14 193 0 179 5 169 -77 149 -56 -15
-120 -73 -129 -117 -9 -43 -19 -40 -45 11 -42 82 -88 135 -141 161 -80 40 -94
36 -109 -28 -10 -45 -9 -74 5 -169 9 -62 16 -117 16 -120 0 -4 -15 -13 -32
-22 -18 -8 -43 -22 -55 -31 l-23 -16 1 125 c0 138 -10 179 -61 232 l-28 30 8
97 c13 148 56 225 151 274 55 27 66 25 110 -23 43 -45 49 -67 49 -161 0 -72 3
-92 18 -105 45 -41 141 -28 247 33 l68 40 72 -68 c79 -75 179 -132 232 -132
27 0 36 5 45 28 21 50 13 160 -21 288 l-32 120 35 53 c19 28 40 69 46 89 13
48 13 149 0 157 -6 4 -26 -2 -44 -13 -76 -45 -247 -53 -560 -28 -266 22 -398
-8 -544 -124 -132 -104 -195 -261 -211 -525 l-6 -110 -67 64 c-37 35 -70 72
-73 83 -4 10 1 38 10 63 21 54 17 136 -15 285 -12 58 -24 107 -26 109 -2 2
-31 -15 -66 -38 -35 -22 -69 -41 -76 -41 -8 0 -37 20 -65 44 -51 45 -161 106
-190 106 -23 0 -31 -57 -23 -169 3 -53 7 -105 9 -115 2 -16 -11 -24 -72 -42
-40 -13 -75 -25 -78 -28 -3 -2 12 -14 34 -25 21 -11 78 -54 127 -95 106 -90
174 -120 253 -114 l51 5 37 -92 c50 -124 47 -135 -30 -89 -116 71 -251 142
-335 178 -165 69 -564 217 -576 212 -12 -5 -28 -105 -26 -166 2 -43 18 -85 48
-126 l23 -31 -242 -6 c-335 -8 -513 -37 -703 -117 -116 -48 -226 -122 -286
-193 l-48 -55 24 -25 c29 -32 81 -59 125 -66 l34 -6 -40 -27 c-90 -59 -243
-190 -291 -250 -109 -132 -174 -304 -184 -483 l-3 -60 37 -3 c20 -2 53 4 74
13 20 8 39 13 42 11 2 -3 -7 -40 -21 -83 -106 -325 -167 -707 -167 -1048 0
-520 122 -970 361 -1332 89 -133 222 -283 287 -320 97 -55 152 -95 152 -111 0
-40 142 -167 235 -209 29 -13 41 -25 43 -42 3 -30 19 -51 39 -51 9 0 12 -6 9
-17 -7 -22 -66 -313 -66 -324 0 -5 39 -8 86 -8 82 2 86 1 117 -29 18 -17 44
-35 58 -41 24 -9 27 -15 32 -78 3 -37 10 -122 17 -188 25 -261 -40 -379 -207
-380 l-62 0 27 -28 c38 -40 108 -82 170 -102 56 -18 56 -16 31 -81 -4 -12 -33
-50 -63 -84 -74 -82 -85 -122 -59 -210 l18 -65 70 1 c74 2 158 31 219 78 62
46 59 51 53 -90 -5 -122 -22 -218 -49 -274 -22 -44 -69 -100 -99 -115 -32 -17
-101 -20 -128 -5 -21 11 -51 79 -51 115 0 19 -4 23 -17 18 -40 -14 -80 -54
-102 -102 -14 -28 -28 -51 -32 -51 -4 0 -22 24 -39 53 -34 55 -69 97 -81 97
-4 0 -13 -17 -19 -37 -6 -21 -44 -103 -83 -182 -61 -122 -72 -151 -72 -195 0
-28 4 -64 8 -79 l8 -29 -62 34 c-71 38 -166 135 -198 201 -106 220 49 434 226
309 44 -32 71 -31 104 4 31 33 31 94 -1 160 -29 59 -135 169 -184 189 -20 9
-36 20 -36 26 0 5 29 41 64 78 35 38 74 88 86 112 21 40 22 53 17 146 -4 62
-2 103 4 103 5 0 9 5 9 12 0 8 -28 9 -99 5 -105 -6 -188 -32 -263 -82 -21 -14
-41 -25 -45 -25 -5 1 -25 27 -45 60 -43 68 -100 114 -172 136 -58 17 -223 41
-231 33 -3 -3 18 -66 46 -140 64 -165 79 -259 79 -481 0 -274 44 -521 127
-714 139 -323 394 -481 739 -460 489 29 816 417 865 1028 12 151 2 277 -36
454 -14 66 -29 181 -35 284 -16 243 -41 333 -120 438 -39 52 -40 52 -15 52 62
0 115 41 115 88 0 28 -38 72 -76 88 -26 11 -34 22 -43 62 -16 65 -67 151 -116
194 -22 19 -82 63 -133 98 -78 53 -182 150 -182 170 0 3 38 12 86 18 223 33
370 137 477 340 66 125 89 218 89 362 1 182 -40 302 -187 550 -38 63 -86 147
-107 185 -21 39 -57 99 -80 135 -56 89 -109 214 -117 274 l-6 50 -41 -37 c-50
-44 -71 -87 -86 -167 l-11 -58 -54 39 c-66 50 -169 99 -204 99 -15 0 -30 -7
-33 -16 -22 -58 12 -151 102 -284 28 -41 48 -78 46 -82 -3 -5 -33 -22 -67 -39
-115 -58 -151 -96 -159 -169 l-3 -34 105 -12 c206 -23 314 -65 421 -163 106
-97 149 -196 149 -346 -1 -99 -9 -150 -41 -238 -28 -75 -46 -80 -155 -43 -119
41 -112 32 -88 126 l20 80 -90 0 c-161 0 -287 40 -416 131 -96 67 -204 210
-263 347 l-26 62 75 0 c76 0 166 20 198 43 16 12 10 19 -61 74 -118 91 -116
85 -52 142 l54 48 -74 13 c-100 17 -150 41 -220 106 -62 57 -137 184 -160 271
-10 38 -9 46 9 71 13 18 25 57 32 103 6 41 14 78 18 82 4 4 24 -13 45 -39 77
-93 213 -177 308 -189 104 -13 137 17 122 112 -10 68 -27 95 -106 171 -61 58
-99 113 -99 143 0 5 26 9 58 9 31 0 75 5 96 11 42 12 96 58 96 83 0 8 -21 25
-47 38 -88 44 -180 191 -214 343 -6 28 -11 104 -11 170 0 128 16 200 66 294
l23 45 6 -155 c10 -316 95 -532 286 -733 81 -85 233 -201 328 -250 57 -29 106
-63 129 -89 l37 -41 36 21 c108 62 115 190 22 376 l-40 78 47 20 c204 87 341
263 342 436 0 71 -19 143 -39 143 -43 0 -122 -55 -213 -149 -94 -96 -160 -141
-206 -141 -12 0 -22 2 -22 5 0 2 14 25 32 50 26 37 33 57 36 110 5 79 -35 305
-54 305 -29 0 -65 -22 -134 -79 -84 -71 -130 -89 -183 -72 -30 10 -38 20 -52
59 -25 72 -31 197 -11 263 20 69 98 191 157 244 39 35 44 37 47 20 1 -11 -18
-80 -43 -153 -27 -79 -45 -152 -45 -178 0 -43 1 -44 28 -38 40 9 102 47 143
88 42 41 88 112 178 272 81 143 139 216 205 259 54 34 153 69 182 63 20 -4
-66 -90 -177 -176 -63 -50 -79 -69 -103 -122 -53 -118 -59 -248 -14 -305 19
-24 27 -27 64 -22 58 6 110 49 194 162 112 149 177 198 313 235 65 17 251 8
392 -20 61 -12 199 -50 307 -86 109 -35 257 -78 330 -94 117 -27 590 -122 658
-133 14 -2 -388 -5 -893 -6 l-917 -1 2 -2967 3 -2968 29 -145 c150 -759 587
-1144 1451 -1279 72 -11 198 -25 280 -31 83 -6 157 -13 165 -15 8 -3 205 -9
437 -15 366 -9 430 -13 482 -29 123 -38 220 -124 282 -249 l35 -69 28 70 c51
124 175 226 310 257 27 6 294 15 617 20 616 11 702 18 936 71 559 127 939 429
1133 898 36 89 72 215 102 366 22 109 22 119 25 1220 2 611 0 1954 -5 2985
l-7 1875 -845 2 c-920 3 -987 4 -950 10 14 2 93 17 175 33 83 16 215 41 295
55 175 31 297 62 490 121 352 110 576 149 705 125 130 -24 257 -113 329 -231
35 -55 112 -137 148 -156 135 -71 194 114 99 313 -25 52 -50 88 -68 100 -50
32 -203 164 -214 185 -11 20 -9 21 32 14 70 -11 164 -60 214 -112 58 -59 86
-100 165 -244 35 -63 77 -135 93 -159 59 -86 137 -147 210 -165 25 -6 27 -4
27 26 -1 49 -17 112 -55 216 -19 51 -35 104 -35 117 0 25 1 25 25 9 36 -24
113 -129 149 -204 28 -60 31 -73 31 -165 -1 -82 -5 -109 -24 -152 -41 -92
-103 -95 -202 -10 -69 59 -127 97 -149 97 -11 0 -22 -28 -39 -102 -44 -185
-39 -259 22 -328 30 -34 30 -35 9 -38 -44 -7 -108 35 -198 127 -95 98 -161
147 -212 157 -28 6 -32 3 -39 -22 -17 -60 -8 -206 16 -267 42 -107 148 -212
281 -278 33 -16 60 -31 60 -33 0 -2 -13 -30 -29 -62 -90 -182 -80 -331 26
-385 34 -18 47 -21 50 -11 14 37 65 77 149 118 107 51 214 132 329 248 130
131 208 272 261 476 24 91 27 125 28 256 1 84 4 150 9 147 15 -9 57 -103 72
-160 22 -83 20 -259 -5 -360 -36 -152 -117 -274 -212 -324 -42 -22 -46 -33
-22 -68 26 -37 90 -61 167 -61 37 0 67 -2 67 -5 0 -29 -44 -92 -108 -154 -85
-83 -102 -119 -102 -209 0 -51 0 -51 40 -63 97 -29 238 33 365 160 45 45 72
66 76 58 4 -7 10 -43 14 -81 4 -38 14 -85 23 -103 20 -41 9 -90 -43 -198 -64
-134 -178 -221 -319 -246 -37 -6 -66 -15 -66 -20 0 -5 23 -25 50 -45 28 -20
50 -40 50 -44 0 -5 -17 -21 -37 -37 -67 -48 -143 -114 -143 -123 0 -21 112
-50 195 -50 47 0 85 -4 85 -9 0 -16 -43 -106 -84 -176 -52 -88 -167 -210 -241
-254 -106 -64 -205 -93 -341 -98 l-122 -6 19 -68 c10 -38 19 -75 19 -82 0 -13
-170 -77 -206 -77 -63 0 -99 105 -99 285 0 143 16 200 80 291 99 139 244 210
485 237 104 12 105 13 108 40 2 17 -7 45 -22 72 -22 37 -40 51 -121 92 -52 26
-95 52 -95 56 0 5 27 46 60 92 80 110 100 156 100 229 l0 59 -45 -6 c-52 -8
-139 -51 -207 -103 l-48 -36 0 39 c0 63 -29 131 -76 180 -23 25 -47 42 -52 39
-6 -3 -13 -30 -17 -59 -8 -65 -91 -238 -173 -363 -201 -306 -295 -526 -308
-724 -14 -200 72 -438 206 -568 104 -102 188 -143 354 -171 l98 -17 -43 -54
c-27 -33 -89 -85 -161 -134 -64 -45 -127 -91 -141 -104 -35 -33 -75 -110 -88
-170 -7 -36 -16 -53 -30 -57 -11 -4 -36 -20 -55 -37 -64 -57 -35 -130 58 -144
21 -4 38 -8 38 -10 0 -2 -15 -24 -34 -48 -82 -108 -108 -206 -126 -466 -6 -92
-22 -221 -37 -290 -20 -101 -25 -157 -27 -290 -1 -204 19 -345 74 -504 115
-334 308 -532 607 -622 77 -24 106 -27 233 -28 204 -1 312 31 441 130 125 96
210 223 278 417 63 179 87 345 101 687 10 264 21 321 91 469 21 46 39 86 39
89 0 9 -155 -9 -215 -25 -80 -22 -158 -73 -198 -129 -17 -26 -37 -53 -43 -62
-11 -14 -16 -13 -53 11 -89 59 -149 78 -266 84 -108 6 -110 6 -93 -14 14 -16
17 -36 15 -114 -2 -116 13 -154 101 -254 34 -38 62 -72 62 -75 0 -3 -21 -16
-46 -29 -98 -52 -202 -212 -191 -294 4 -26 14 -47 29 -59 28 -21 71 -23 88 -4
20 26 97 49 136 43 41 -7 87 -45 111 -92 24 -46 21 -149 -6 -221 -35 -94 -132
-198 -234 -250 l-28 -15 8 38 c16 80 6 122 -61 253 -35 69 -72 149 -81 178
-10 28 -21 52 -25 52 -10 0 -55 -54 -94 -112 -26 -39 -30 -41 -40 -24 -38 64
-75 111 -103 128 -36 22 -37 21 -47 -43 -10 -61 -40 -89 -92 -89 -142 0 -224
159 -224 432 l0 97 46 -31 c78 -52 143 -79 210 -85 l64 -6 16 39 c10 21 19 62
22 90 5 58 -10 93 -68 164 -40 48 -70 100 -70 122 0 8 28 26 63 41 56 25 177
104 177 117 0 3 -29 5 -65 6 -52 1 -72 6 -105 28 -100 66 -116 167 -79 494 13
113 13 113 44 126 17 8 40 26 51 41 19 26 24 27 107 26 103 -1 99 -13 63 165
-39 195 -37 181 -15 187 11 3 21 17 25 35 5 24 19 38 69 67 101 60 180 128
203 178 17 37 38 56 107 102 238 159 428 427 560 790 194 538 193 1175 -6
1878 -22 77 -38 141 -36 143 2 3 20 -3 40 -11 20 -8 52 -15 72 -15 l35 0 0 63
c-1 134 -55 303 -138 423 -52 77 -175 194 -287 274 l-90 65 35 6 c19 3 46 11
60 18 30 16 80 61 80 73 0 17 -96 111 -157 154 -191 137 -455 201 -875 213
l-237 6 29 44 c16 24 32 59 36 77 7 40 -3 174 -16 194 -7 11 -63 -7 -282 -89
-297 -112 -461 -186 -607 -274 -52 -32 -96 -55 -99 -52 -3 2 13 51 36 107 l41
103 58 -3 c78 -4 154 33 255 125 42 39 93 78 113 87 19 10 33 21 31 25 -3 4
-35 16 -71 26 -37 10 -69 24 -72 31 -3 7 0 55 5 106 13 115 6 188 -17 188 -28
0 -134 -55 -197 -104 -34 -25 -66 -46 -70 -46 -5 0 -35 18 -68 40 -68 46 -86
50 -86 16 0 -13 -9 -77 -21 -142 -22 -126 -20 -194 7 -246 19 -36 12 -49 -73
-132 l-58 -57 -2 33 c-28 372 -97 528 -287 642 -136 81 -245 100 -474 80 -194
-16 -407 -18 -472 -4 -50 11 -86 27 -112 48 -25 21 -31 0 -27 -95 4 -72 7 -83
47 -142 l42 -64 -31 -111 c-33 -114 -42 -213 -26 -288 7 -35 10 -38 43 -38 52
0 159 60 242 135 l71 65 43 -29 c59 -40 107 -58 170 -66 43 -5 59 -2 86 14
l32 21 0 91 c0 108 14 145 71 184 l39 27 57 -34 c99 -58 143 -149 143 -295 0
-64 -3 -75 -26 -100 -50 -53 -59 -87 -57 -225 0 -71 -2 -128 -6 -128 -5 0 -16
9 -25 19 -10 11 -31 23 -47 26 -34 8 -35 10 -13 148 14 88 14 110 2 157 -13
55 -13 55 -50 53 -68 -4 -133 -61 -194 -170 -16 -29 -32 -53 -35 -53 -4 0 -9
13 -12 28 -3 16 -24 47 -46 69 -31 33 -51 44 -96 53 -31 6 -59 9 -62 6 -3 -3
-5 -73 -4 -155 2 -118 -1 -157 -14 -187 -30 -73 -78 -106 -172 -119 -26 -4
-57 -9 -68 -12 -15 -4 -9 7 22 39 33 36 43 57 52 104 6 33 17 83 25 112 l13
52 -63 0 c-34 0 -99 -9 -144 -19 l-81 -20 -36 25 c-81 55 -178 56 -351 3 -116
-35 -175 -34 -216 4 -13 12 -42 56 -64 98 l-40 76 56 13 c74 16 122 62 122
114 0 47 -54 108 -116 132 -24 9 -44 23 -44 30 0 39 111 115 190 129 l35 6 0
-45 c0 -77 61 -119 171 -118 133 1 224 71 224 172 0 86 -56 162 -152 205 -57
26 -68 27 -157 22 -53 -3 -108 -10 -123 -16 -16 -6 -28 -9 -28 -8 0 1 9 26 20
55 14 36 20 76 20 130 0 96 -7 122 -31 122 -23 0 -150 -60 -199 -93 l-34 -24
-23 50 c-32 68 -124 207 -138 207 -6 0 -32 -35 -57 -77z m117 -83 c12 -25 32
-75 44 -112 13 -38 24 -68 26 -68 2 0 22 16 46 36 53 44 111 74 143 74 34 0
41 -40 22 -124 -21 -87 -40 -122 -76 -141 -17 -9 -45 -32 -62 -52 -18 -21 -46
-50 -61 -65 -15 -14 -43 -61 -63 -102 l-35 -76 -44 0 c-41 0 -44 2 -56 38 -6
20 -20 53 -29 72 -22 43 -159 185 -187 194 -12 4 -29 23 -38 43 -23 47 -40
151 -31 186 12 49 70 32 173 -50 l42 -34 16 37 c9 21 18 49 22 63 8 34 51 121
71 144 15 16 16 16 35 0 10 -10 29 -38 42 -63z m-1111 -319 c-19 -48 -74 -99
-113 -107 l-28 -6 34 -36 c70 -74 106 -198 95 -325 -5 -65 -9 -66 -89 -21 -60
34 -101 91 -177 241 -65 128 -116 193 -151 193 -23 0 -19 -8 31 -64 62 -68 78
-104 70 -150 -14 -73 -134 -166 -214 -166 -34 0 -34 1 -29 38 13 102 -33 222
-101 266 -105 68 -220 23 -285 -111 -18 -36 -30 -48 -62 -59 -78 -26 -165
-155 -201 -298 -9 -37 -18 -65 -21 -63 -7 8 17 219 34 292 19 88 72 194 124
249 21 24 66 58 99 75 102 55 166 62 540 66 247 2 351 6 395 17 33 8 61 13 63
12 2 -1 -5 -20 -14 -43z m2546 14 c355 -3 425 -10 517 -51 179 -79 283 -289
282 -569 l-1 -90 -13 61 c-18 82 -68 199 -109 255 -25 34 -49 52 -88 69 -47
19 -56 28 -72 68 -55 131 -198 178 -295 96 -17 -14 -42 -50 -58 -82 -23 -47
-28 -70 -28 -134 l0 -78 -31 0 c-45 0 -127 45 -173 95 -33 36 -41 52 -41 83 0
42 36 106 89 156 34 33 39 46 16 46 -35 0 -92 -71 -153 -192 -77 -151 -119
-209 -174 -241 -75 -43 -86 -43 -94 -2 -10 53 13 210 38 259 11 22 34 56 49
74 16 18 29 36 29 40 0 4 -18 14 -39 23 -41 17 -84 72 -96 120 l-7 27 59 -16
c45 -12 131 -15 393 -17z m-1995 -24 c163 -24 289 -113 368 -258 22 -42 22
-53 -3 -53 -11 0 -20 4 -20 9 0 22 -92 119 -136 143 -65 35 -163 53 -247 44
-37 -4 -67 -11 -67 -16 0 -4 23 -13 51 -20 57 -14 67 -27 49 -71 -17 -41 -47
-59 -95 -59 -131 1 -213 132 -138 221 52 62 116 78 238 60z m1184 -16 c67 -34
95 -74 89 -129 -11 -97 -112 -157 -216 -130 -25 7 -67 77 -58 99 2 7 30 19 60
25 31 6 56 15 56 20 0 5 -30 12 -67 16 -87 9 -185 -9 -251 -47 -47 -26 -132
-117 -132 -140 0 -5 -11 -9 -25 -9 l-25 0 21 43 c92 181 238 270 452 276 33 1
63 -7 96 -24z m-3513 -73 c17 -11 36 -51 29 -62 -10 -16 -30 -12 -59 11 -33
26 -35 59 -3 59 12 0 27 -4 33 -8z m5724 -11 c0 -23 -45 -61 -71 -61 -25 0
-25 34 1 60 26 26 70 27 70 1z m-5611 -98 c22 -33 31 -58 31 -87 l-1 -41 -25
30 c-33 41 -71 167 -45 151 5 -4 23 -27 40 -53z m167 20 c25 -58 31 -211 10
-251 -9 -18 -21 -32 -27 -32 -20 0 -59 109 -59 166 0 55 33 154 51 154 5 0 16
-17 25 -37z m5157 -10 c24 -67 22 -162 -4 -224 -12 -27 -27 -49 -34 -49 -46 0
-49 217 -4 303 15 27 24 21 42 -30z m147 -38 c-6 -23 -22 -55 -35 -71 l-24
-29 -1 40 c0 48 62 160 68 123 2 -12 -2 -40 -8 -63z m-5594 17 c17 -10 74
-104 74 -120 0 -19 -56 15 -80 49 -26 35 -36 79 -19 79 8 0 19 -4 25 -8z
m5724 -2 c0 -40 -63 -110 -99 -110 -16 0 34 96 56 109 23 13 43 14 43 1z
m-5700 -162 c110 -35 180 -81 180 -119 0 -41 -96 -24 -188 35 -50 31 -122 95
-122 107 0 11 48 2 130 -23z m2932 12 c63 -13 119 -32 154 -51 63 -36 68 -42
60 -74 -12 -47 -156 -91 -156 -47 0 11 11 21 32 27 40 12 45 28 18 53 -29 27
-68 33 -220 33 -155 0 -188 -5 -226 -37 -25 -20 -27 -25 -14 -34 8 -6 27 -13
43 -17 18 -4 27 -12 27 -26 0 -18 -5 -19 -51 -14 -55 7 -92 26 -108 55 -24 46
63 100 210 131 119 25 112 25 231 1z m2833 9 c-18 -29 -161 -130 -210 -148
-93 -35 -137 -6 -77 52 33 31 133 74 217 92 76 17 77 17 70 4z m-5005 -46 c0
-9 -16 -64 -35 -124 -31 -96 -35 -123 -41 -260 -4 -85 -10 -161 -15 -169 -6
-10 -8 -11 -9 -2 0 7 -18 54 -40 106 -47 109 -50 155 -19 266 22 79 46 128 87
173 29 30 72 37 72 10z m4189 -18 c42 -48 67 -99 92 -191 27 -98 22 -137 -34
-268 l-42 -100 -11 169 c-9 143 -15 186 -42 274 -18 57 -32 114 -32 127 0 36
32 30 69 -11z m-5557 -44 c47 -28 257 -108 358 -136 130 -37 223 -78 360 -161
192 -116 228 -152 118 -120 -29 8 -136 29 -238 46 -300 50 -458 101 -552 180
-40 33 -82 113 -93 173 -7 43 0 45 47 18z m6898 -9 c0 -41 -27 -113 -54 -144
-94 -106 -239 -161 -586 -218 -102 -17 -209 -37 -239 -46 -29 -8 -56 -12 -60
-9 -15 16 141 121 299 200 38 19 165 66 281 105 117 39 242 86 278 104 83 42
81 41 81 8z m-3552 -139 c-8 -210 -64 -332 -222 -488 -147 -145 -322 -234
-554 -281 -174 -35 -246 -34 -352 6 -153 57 -202 88 -403 257 -90 76 -101 83
-142 83 -54 0 -84 -11 -160 -59 -73 -47 -108 -57 -129 -36 -27 27 -41 124 -41
290 0 134 3 165 18 193 10 17 21 32 26 32 5 0 19 -21 32 -47 19 -40 23 -67 27
-199 l5 -152 31 9 c31 9 196 90 196 96 0 2 -7 18 -16 36 -19 35 -34 257 -18
257 37 0 108 -80 206 -232 92 -143 97 -143 74 0 -12 77 -10 132 8 161 4 6 25
16 47 22 59 18 66 6 45 -78 -37 -142 -39 -153 -26 -198 6 -23 23 -55 37 -70
38 -40 136 -82 223 -96 87 -13 296 -7 313 10 8 8 5 11 -12 11 -108 0 -214 105
-223 221 l-3 34 46 -1 c30 -1 78 -17 145 -48 139 -63 179 -76 238 -75 l51 0
-53 19 c-81 29 -167 81 -150 91 21 14 110 10 190 -7 105 -23 260 -24 325 -1
93 32 127 87 168 267 10 41 22 81 27 88 26 31 31 9 26 -115z m192 107 c6 -11
20 -61 30 -111 34 -160 82 -218 203 -246 69 -16 173 -12 290 13 72 15 154 18
182 8 22 -9 -55 -59 -140 -90 l-60 -23 52 0 c53 -1 117 20 268 89 41 19 87 33
115 34 l45 1 -3 -35 c-1 -19 -15 -60 -30 -90 -32 -66 -99 -115 -168 -126 -73
-11 -37 -25 78 -31 254 -13 422 52 459 178 11 35 9 50 -14 129 -33 108 -35
150 -8 150 38 0 83 -23 92 -47 12 -33 11 -114 -2 -167 -6 -24 -9 -56 -7 -72 3
-25 13 -14 91 108 80 124 160 218 187 218 22 0 10 -222 -15 -282 -5 -14 11
-25 87 -61 51 -25 103 -48 116 -52 l22 -6 0 148 c0 150 8 203 35 238 15 20 15
20 30 0 55 -71 57 -396 4 -485 -24 -39 -45 -35 -149 28 -59 36 -87 47 -130 50
l-56 4 -145 -119 c-173 -142 -224 -172 -379 -224 -116 -39 -117 -39 -201 -28
-238 29 -384 80 -556 192 -161 104 -282 257 -329 418 -22 72 -35 198 -28 257
7 55 17 65 34 32z m-2581 -116 c130 -143 317 -454 273 -454 -33 0 -143 109
-211 208 -44 65 -161 297 -161 320 0 22 34 -3 99 -74z m4997 -29 c-86 -181
-179 -315 -269 -386 -82 -65 -87 -49 -24 73 24 46 78 133 121 194 78 114 206
249 213 227 3 -7 -16 -56 -41 -108z m-2509 -38 c18 -86 82 -247 130 -327 146
-241 411 -417 701 -462 45 -7 76 -15 68 -18 -9 -3 -428 -3 -933 -2 -831 4
-910 5 -838 18 324 58 596 249 735 515 42 80 110 271 110 308 0 40 16 21 27
-32z m-3692 -64 c-11 -3 -56 -16 -100 -29 -448 -138 -855 -472 -1047 -859 -24
-49 -57 -117 -74 -150 -22 -45 -39 -65 -69 -82 -22 -13 -44 -23 -49 -23 -5 0
-6 30 -4 68 6 74 37 161 89 248 49 81 174 220 264 294 89 74 248 219 253 232
6 13 -49 9 -93 -7 -44 -15 -135 -20 -135 -7 0 22 62 91 107 120 122 78 283
130 503 163 80 11 165 25 190 29 47 8 199 11 165 3z m7695 -32 c275 -48 436
-102 538 -184 40 -31 82 -82 82 -99 0 -13 -84 -9 -136 7 -55 17 -94 19 -94 6
0 -12 148 -151 211 -198 172 -127 327 -327 373 -482 15 -52 22 -161 11 -161
-14 0 -62 30 -82 52 -13 13 -35 53 -49 88 -121 299 -337 552 -639 752 -167
110 -335 188 -530 244 l-50 14 95 -4 c52 -3 174 -19 270 -35z m-7193 -36 c301
-39 648 -157 1039 -352 94 -47 181 -93 194 -103 22 -16 20 -17 -41 -8 -79 10
-184 40 -454 128 -334 109 -499 128 -658 77 -74 -24 -207 -100 -207 -118 0
-14 -129 -180 -183 -236 -56 -58 -67 -57 -87 2 -30 91 67 238 271 411 48 40
99 78 114 84 14 5 68 10 118 10 96 0 135 11 107 30 -8 5 -33 10 -54 10 -21 0
-75 7 -119 16 -105 21 -231 15 -310 -16 -115 -44 -200 -136 -344 -370 -84
-139 -171 -252 -187 -247 -20 7 -6 95 30 194 62 168 84 234 84 249 0 7 -26
-12 -57 -44 -32 -31 -95 -90 -140 -130 -93 -82 -139 -143 -165 -217 -12 -35
-17 -42 -18 -25 0 34 31 128 75 228 20 45 35 88 33 94 -4 10 -63 -42 -246
-215 -154 -147 -268 -416 -279 -662 -9 -192 30 -315 135 -427 25 -27 60 -58
79 -69 31 -19 33 -23 19 -37 -26 -26 -106 -32 -146 -12 -196 101 -220 466 -63
953 53 167 59 179 131 277 209 284 458 448 780 514 144 30 369 34 549 11z
m6859 -5 c183 -33 317 -85 466 -182 145 -95 317 -275 404 -423 40 -69 92 -225
132 -395 35 -149 36 -162 36 -345 1 -176 -1 -194 -23 -249 -27 -68 -79 -129
-131 -156 -43 -22 -121 -17 -145 10 -15 17 -14 20 27 48 128 88 192 214 205
398 18 270 -124 621 -317 785 -29 24 -86 77 -127 117 -41 39 -79 72 -83 72
-13 0 18 -96 53 -165 35 -70 57 -145 57 -197 0 -52 -16 -48 -22 6 -3 24 -17
68 -31 99 -26 57 -62 97 -241 264 -83 78 -87 81 -80 50 3 -18 25 -79 46 -137
57 -150 85 -257 69 -273 -9 -9 -19 -3 -46 28 -43 50 -154 211 -229 332 -37 60
-81 115 -130 160 -65 61 -85 73 -155 96 -94 31 -187 35 -296 12 -38 -8 -88
-15 -110 -15 -22 0 -47 -5 -55 -10 -28 -19 11 -30 108 -30 51 0 103 -5 114
-11 39 -21 195 -157 264 -232 113 -121 153 -233 106 -295 l-18 -24 -51 54
c-78 82 -107 118 -152 187 -88 137 -287 213 -503 190 -128 -13 -193 -30 -448
-114 -242 -80 -325 -103 -409 -115 -52 -7 -53 -7 -30 10 47 36 389 202 545
264 366 146 625 203 935 205 115 1 184 -4 265 -19z m-5423 -286 c18 -9 55 -38
83 -63 28 -25 106 -79 174 -120 67 -41 134 -84 149 -97 24 -21 24 -23 6 -24
-47 0 -239 51 -345 93 -149 58 -270 115 -270 127 0 5 11 15 24 22 13 7 48 28
77 45 63 38 61 38 102 17z m3576 -17 c29 -17 64 -38 77 -45 13 -7 24 -17 24
-22 0 -25 -346 -163 -490 -196 -180 -40 -184 -31 -27 62 147 89 216 136 247
170 30 32 79 64 100 64 8 0 39 -15 69 -33z m2572 -402 c44 -89 59 -157 59
-270 0 -211 -61 -391 -195 -580 -75 -105 -291 -301 -369 -336 -23 -10 -74 -36
-115 -59 l-74 -40 -30 27 c-28 27 -29 31 -24 96 7 87 34 134 127 220 l71 66
-48 6 c-183 22 -321 103 -388 226 -23 44 -30 69 -33 136 -4 70 -2 84 12 89 25
10 76 -29 136 -103 95 -116 188 -163 325 -163 83 0 153 19 247 66 38 19 68 31
68 26 0 -4 -21 -29 -47 -54 -83 -82 -187 -115 -368 -119 -67 -1 -69 -1 -30
-11 37 -9 79 -8 260 8 l70 6 -86 -80 c-47 -44 -98 -97 -114 -119 l-29 -38 36
30 c267 223 317 274 371 380 27 54 81 238 75 257 -2 6 -19 -19 -37 -55 -62
-122 -205 -227 -309 -227 -54 0 -103 30 -132 81 -22 39 -25 55 -25 151 0 70 5
112 12 119 10 10 31 0 95 -44 100 -68 131 -79 181 -62 54 18 84 41 117 86 38
52 56 118 70 253 6 61 14 123 17 140 l6 30 34 -40 c18 -21 47 -66 64 -99z
m-8721 118 c0 -36 31 -261 41 -295 26 -98 82 -166 158 -191 57 -19 81 -11 189
61 104 70 107 68 106 -71 -1 -115 -13 -154 -64 -202 -28 -27 -37 -30 -98 -30
-55 0 -77 6 -121 30 -80 43 -169 130 -196 190 l-23 50 5 -40 c3 -22 17 -74 30
-115 41 -126 107 -219 233 -325 41 -35 103 -89 138 -120 103 -94 70 -40 -45
73 l-108 105 70 -7 c169 -15 222 -17 260 -8 38 9 36 10 -35 11 -178 3 -282 37
-365 119 -25 24 -45 48 -45 53 0 5 31 -6 68 -25 106 -54 172 -69 271 -64 141
7 183 32 348 212 77 84 103 74 103 -38 0 -36 -10 -69 -35 -122 -66 -136 -189
-212 -387 -239 l-47 -6 69 -68 c39 -37 79 -88 90 -112 26 -58 27 -174 2 -206
l-17 -23 -128 66 c-176 92 -338 232 -445 387 -219 317 -248 694 -70 920 28 34
48 47 48 30z m7387 -3080 c-3 -3179 1 -2968 -56 -3207 -141 -590 -587 -973
-1277 -1096 -63 -11 -866 -39 -1146 -40 -177 0 -282 -16 -378 -58 -56 -25
-145 -91 -183 -137 l-28 -34 -57 57 c-66 67 -164 121 -272 152 -68 19 -109 21
-430 25 -498 7 -696 20 -940 60 -254 42 -431 94 -605 179 -211 103 -386 248
-502 417 -98 142 -186 360 -232 571 -49 229 -49 221 -57 3221 l-6 2807 3086 0
3087 0 -4 -2917z m1718 2697 c86 -194 141 -385 179 -620 34 -209 46 -337 46
-492 l0 -129 -32 3 c-29 3 -36 10 -61 60 -34 72 -47 183 -36 333 11 150 11
267 1 261 -5 -3 -12 -43 -16 -90 -23 -302 -114 -439 -349 -523 -67 -24 -79
-26 -87 -13 -30 47 16 136 132 258 103 108 160 200 205 327 25 73 28 92 27
215 0 117 -5 157 -38 305 -20 94 -41 190 -46 215 l-8 44 18 -24 c11 -14 40
-72 65 -130z m-9554 -70 c-71 -317 -73 -437 -10 -600 44 -116 92 -186 188
-280 48 -47 100 -107 116 -133 26 -46 39 -117 22 -133 -10 -10 -80 12 -166 53
-148 70 -221 178 -252 368 -37 233 -38 232 -32 -21 6 -259 -1 -314 -49 -392
-17 -28 -25 -33 -52 -30 l-31 3 2 180 c3 273 39 500 124 785 51 166 168 432
176 398 2 -9 -14 -98 -36 -198z m-198 -1270 c13 -11 56 -79 93 -152 83 -162
123 -208 205 -238 59 -22 60 -24 38 -36 -37 -21 -90 -16 -141 11 -26 14 -55
25 -64 25 -40 0 26 -45 161 -110 165 -80 187 -95 165 -110 -43 -31 -191 13
-291 85 -27 19 -52 35 -55 35 -12 0 12 -51 83 -180 157 -281 276 -429 410
-514 57 -35 189 -72 291 -81 45 -4 82 -11 82 -17 0 -17 -32 -73 -58 -101 -38
-40 -89 -50 -214 -42 -65 4 -108 3 -108 -3 0 -5 34 -17 75 -27 74 -17 177 -17
317 1 31 4 78 -1 142 -16 107 -24 108 -26 44 -87 -58 -56 -139 -86 -248 -91
-116 -5 -175 9 -304 75 -165 86 -342 286 -461 523 -92 183 -172 438 -211 670
-16 96 -30 359 -21 384 9 22 39 20 70 -4z m1163 -37 c10 -31 39 -88 64 -127
80 -123 226 -368 264 -444 142 -283 161 -552 53 -767 -44 -88 -101 -168 -147
-208 -66 -56 -257 -126 -347 -127 -35 0 -27 18 12 29 97 26 203 109 260 201
39 61 84 202 91 280 16 176 -67 394 -188 491 -99 81 -202 119 -370 140 -60 7
-108 16 -108 21 0 11 78 67 110 80 14 5 48 14 75 19 79 14 135 31 135 41 0 4
-46 54 -103 111 -101 100 -131 143 -143 207 l-7 31 58 -26 c82 -36 122 -62
181 -117 l52 -49 -5 88 c-4 74 -2 96 16 136 11 26 22 47 25 47 2 0 12 -25 22
-57z m7654 -80 c0 -23 -4 -52 -9 -65 -4 -13 -11 -36 -15 -52 -7 -28 -4 -26 52
26 56 52 203 138 235 138 13 0 14 -6 5 -37 -18 -68 -39 -97 -139 -194 -55 -53
-99 -101 -99 -106 0 -12 103 -43 141 -43 37 -1 100 -34 137 -72 l32 -34 -105
-13 c-355 -41 -534 -228 -552 -577 -6 -113 -4 -125 21 -202 30 -88 84 -179
137 -228 39 -36 133 -88 190 -106 43 -12 52 -28 17 -28 -100 1 -286 72 -358
137 -71 64 -155 209 -186 320 -48 176 -29 362 60 576 43 105 174 341 222 402
13 17 43 56 65 88 35 50 49 82 85 197 9 27 64 -81 64 -127z m1157 -40 c-6
-206 -27 -340 -88 -542 -149 -499 -397 -817 -727 -930 -115 -39 -287 -22 -378
37 -42 27 -100 89 -92 97 3 3 48 15 102 27 87 19 105 21 167 10 38 -7 101 -12
140 -12 69 0 185 23 202 40 5 4 -51 7 -125 6 -152 -1 -181 8 -222 72 -49 75
-47 78 45 86 44 4 104 11 132 17 123 26 279 129 373 247 83 105 314 496 300
509 -3 3 -20 -5 -38 -19 -70 -54 -173 -100 -234 -104 -71 -6 -100 8 -69 32 11
9 84 47 161 85 139 69 198 109 160 109 -9 0 -40 -12 -68 -26 -40 -20 -61 -25
-96 -21 -70 8 -70 21 -3 47 83 31 125 79 199 232 63 128 103 178 144 178 20 0
20 -4 15 -177z m-9076 -1595 c69 -30 107 -108 52 -108 -59 0 -203 99 -203 138
0 12 101 -9 151 -30z m8269 32 c0 -38 -148 -140 -204 -140 -57 0 -14 82 59
111 17 6 55 17 85 24 30 7 56 13 58 14 1 1 2 -3 2 -9z m-8091 -201 c-14 -27
-56 -35 -79 -14 -18 16 -18 17 13 45 l32 29 22 -21 c17 -16 20 -25 12 -39z
m7814 31 c14 -11 31 -20 38 -20 9 0 6 -8 -8 -21 -17 -17 -28 -20 -57 -15 -38
7 -45 22 -24 56 16 25 19 25 51 0z m-7735 -122 c-4 -56 -20 -57 -39 -3 l-17
45 30 0 c28 0 29 -2 26 -42z m7647 25 c-3 -10 -9 -30 -12 -45 -3 -16 -9 -28
-13 -28 -14 0 -30 26 -36 58 -6 31 -6 32 31 32 31 0 36 -3 30 -17z m-7731 -39
c11 -29 6 -95 -9 -124 -13 -26 -42 -50 -59 -50 -11 0 -6 44 11 118 13 55 21
72 34 72 9 0 20 -7 23 -16z m7829 -62 c27 -123 20 -139 -33 -82 -33 35 -45 77
-36 126 6 27 12 34 30 34 20 0 24 -8 39 -78z m-7665 62 c15 -4 22 -14 22 -30
0 -20 -5 -24 -30 -24 -27 0 -30 3 -30 30 0 32 2 33 38 24z m7480 -27 c3 -24 0
-27 -27 -27 -26 0 -31 4 -31 24 0 15 7 26 18 29 28 7 37 2 40 -26z m-7343 -97
c31 -42 32 -64 3 -85 -22 -15 -24 -14 -45 10 -23 26 -28 60 -17 102 8 28 24
20 59 -27z m7230 11 c6 -38 -11 -91 -33 -105 -14 -8 -52 23 -52 43 0 20 55
101 69 101 5 0 12 -18 16 -39z m-7357 14 c6 -3 12 -18 12 -35 0 -28 -3 -30
-36 -30 -19 0 -44 5 -55 10 -18 10 -19 8 -13 -28 l6 -38 -59 -27 c-110 -49
-113 -50 -113 -23 0 15 11 33 30 48 17 13 43 33 59 46 17 12 35 38 41 56 10
33 11 33 63 29 29 -3 58 -6 65 -8z m7551 -20 c7 -19 29 -48 48 -63 61 -46 83
-70 83 -91 0 -19 -2 -19 -37 -7 -21 8 -60 24 -86 36 -48 21 -49 23 -45 60 3
33 1 37 -14 29 -9 -5 -33 -9 -53 -9 -35 0 -36 1 -33 33 3 30 5 32 53 38 28 3
55 7 60 7 6 1 17 -14 24 -33z m-7513 -112 c18 -23 28 -27 69 -24 l48 2 -6 -52
c-4 -28 -8 -54 -11 -56 -2 -2 -19 5 -37 16 -40 25 -74 26 -121 7 -100 -42
-103 55 -4 115 39 24 36 24 62 -8z m7404 12 c33 -17 80 -74 80 -98 0 -29 -35
-39 -76 -22 -49 20 -83 19 -123 -6 -18 -11 -35 -18 -38 -16 -2 3 -7 30 -10 60
l-6 55 37 -8 c33 -7 41 -5 69 21 38 34 31 32 67 14z m-7186 -116 c31 -24 34
-54 6 -69 -23 -12 -60 6 -60 30 0 8 -3 25 -6 38 -8 29 23 30 60 1z m6969 14
c10 -17 -6 -70 -24 -81 -24 -15 -59 0 -59 25 0 36 68 81 83 56z m-7115 -126
c66 -63 123 -197 148 -347 18 -112 18 -300 -1 -391 -44 -208 -187 -353 -350
-354 l-60 0 -3 36 c-4 44 30 109 128 250 80 114 130 210 130 249 -1 21 -5 18
-25 -21 -36 -70 -86 -109 -139 -109 -44 0 -106 17 -106 28 0 4 18 15 39 25 43
19 106 79 127 119 25 49 37 174 25 273 -17 147 -24 262 -16 275 12 20 67 2
103 -33z m7309 27 c3 -8 -2 -89 -12 -180 -34 -314 -11 -393 139 -480 l49 -28
-34 -12 c-19 -7 -55 -13 -81 -13 -57 -1 -97 28 -133 98 -19 37 -24 41 -25 22
0 -35 49 -125 143 -263 91 -133 123 -202 113 -243 -6 -22 -12 -25 -51 -25 -50
0 -136 29 -186 63 -60 40 -126 134 -154 216 -83 253 -29 646 111 801 52 58
108 78 121 44z m-8608 -610 c84 -42 140 -141 142 -248 l0 -41 17 25 c52 76
206 183 288 200 78 16 84 12 84 -62 0 -92 -38 -160 -171 -302 -105 -113 -159
-196 -159 -244 0 -21 5 -18 48 26 55 57 93 79 150 88 106 17 202 -80 202 -205
0 -28 -3 -32 -17 -26 -129 55 -196 42 -291 -52 -73 -74 -90 -161 -52 -274 53
-158 191 -283 367 -334 67 -19 172 -28 208 -16 l30 9 -36 1 c-64 2 -136 29
-164 63 -40 48 -32 103 38 256 32 68 57 129 57 137 0 24 18 26 38 5 11 -12 39
-67 62 -123 47 -116 55 -127 119 -163 60 -35 58 -32 35 -49 -25 -19 -77 -19
-113 0 -16 8 -48 36 -71 62 -33 38 -41 43 -35 23 29 -95 137 -164 222 -141 45
12 127 81 156 130 21 36 22 35 -33 16 -84 -30 -139 -9 -185 70 -31 52 -31 111
0 158 l17 26 56 -45 c55 -45 58 -46 113 -41 127 11 213 97 253 253 22 87 30
246 17 333 l-12 73 35 62 c19 33 42 87 51 119 9 31 18 57 20 57 2 0 14 -33 27
-72 56 -182 9 -630 -91 -860 -70 -164 -221 -326 -373 -402 -118 -58 -185 -76
-323 -82 -96 -5 -122 -3 -209 20 -151 39 -276 118 -365 230 -57 72 -81 118
-121 228 -53 150 -61 217 -70 558 -9 324 -16 387 -60 516 -11 31 -20 59 -20
61 0 13 75 -2 119 -23z m9905 -16 c-53 -152 -73 -319 -72 -623 0 -199 -13
-315 -49 -428 -90 -286 -259 -447 -533 -508 -109 -24 -249 -22 -355 6 -208 54
-393 208 -499 414 -49 97 -68 156 -91 286 -8 50 -22 128 -31 174 -28 147 -9
521 26 521 3 0 12 -17 19 -37 7 -21 32 -76 55 -123 41 -82 42 -87 33 -145 -4
-33 -6 -114 -3 -180 7 -169 37 -258 115 -335 59 -59 106 -80 176 -80 29 0 51
10 91 40 29 22 56 40 59 40 14 0 45 -69 45 -101 0 -62 -85 -159 -140 -159 -14
0 -50 7 -79 16 -29 8 -55 14 -56 12 -8 -8 64 -88 108 -121 67 -50 122 -57 185
-25 47 24 112 97 112 125 0 11 -7 7 -22 -12 -58 -74 -145 -105 -193 -69 -22
17 -21 19 46 54 48 25 51 29 111 170 29 68 58 125 63 126 15 5 147 -282 153
-332 3 -30 0 -51 -12 -69 -24 -36 -90 -66 -160 -73 -58 -5 -59 -6 -26 -14 42
-10 148 -2 210 16 113 33 229 110 291 193 122 161 130 317 21 419 -86 82 -158
101 -252 65 l-50 -19 0 36 c0 62 20 112 60 152 76 76 172 63 281 -37 32 -30
59 -51 59 -46 0 5 -7 29 -15 54 -16 46 -48 89 -179 235 -114 129 -160 233
-138 309 8 28 11 30 57 27 26 -1 66 -10 89 -21 57 -25 195 -135 220 -174 l20
-32 6 66 c13 139 110 248 222 249 l37 0 -15 -42z"/>
<path d="M6423 16775 c-10 -76 -5 -377 7 -389 18 -18 25 50 25 229 0 118 -4
187 -12 200 -9 16 -12 11 -20 -40z"/>
<path d="M6192 16775 c7 -31 162 -227 166 -211 4 20 -35 79 -103 156 -32 36
-60 67 -63 70 -3 3 -3 -4 0 -15z"/>
<path d="M6660 16723 c-57 -62 -107 -139 -97 -149 2 -2 37 38 77 88 95 120 94
118 88 124 -3 2 -34 -26 -68 -63z"/>
<path d="M4854 16440 c40 -45 51 -76 42 -123 -5 -30 -5 -31 9 -13 30 39 9 128
-36 160 -44 30 -52 17 -15 -24z"/>
<path d="M5214 16271 c32 -60 99 -121 135 -121 5 0 -23 34 -62 75 -77 80 -97
93 -73 46z"/>
<path d="M8036 16451 c-32 -33 -46 -105 -27 -137 8 -16 10 -11 11 27 0 40 6
53 41 93 33 37 37 46 22 46 -11 0 -32 -13 -47 -29z"/>
<path d="M7626 16225 c-69 -76 -71 -92 -8 -53 31 19 92 99 92 120 0 20 -21 3
-84 -67z"/>
<path d="M5742 16440 c12 -36 53 -60 102 -60 44 0 66 9 66 26 0 10 -10 12 -45
7 -40 -5 -48 -2 -80 26 -45 39 -57 39 -43 1z"/>
<path d="M7130 16439 c-31 -27 -40 -30 -82 -25 -50 5 -63 -6 -29 -24 36 -19
97 -12 129 15 31 26 48 65 29 65 -7 -1 -28 -14 -47 -31z"/>
<path d="M4752 15797 c11 -95 84 -188 226 -285 99 -67 161 -101 258 -137 55
-21 84 -25 172 -25 58 0 103 3 99 6 -3 4 -72 22 -154 40 -81 19 -175 47 -210
63 -142 67 -282 195 -343 314 -19 37 -39 67 -44 67 -5 0 -6 -19 -4 -43z"/>
<path d="M5550 15365 c-11 -13 -8 -13 19 -4 35 12 40 19 12 19 -10 0 -24 -7
-31 -15z"/>
<path d="M8108 15758 c-54 -98 -130 -174 -248 -250 -84 -54 -171 -85 -337
-119 -62 -13 -113 -28 -113 -32 0 -5 48 -7 108 -5 92 3 118 8 188 36 252 100
463 295 452 417 l-3 38 -47 -85z"/>
<path d="M7028 15663 c7 -3 16 -2 19 1 4 3 -2 6 -13 5 -11 0 -14 -3 -6 -6z"/>
<path d="M7320 15376 c0 -2 15 -9 33 -15 29 -10 30 -9 13 4 -18 14 -46 20 -46
11z"/>
<path d="M2115 15642 c-34 -21 -62 -52 -48 -52 10 0 92 69 83 70 -3 0 -18 -8
-35 -18z"/>
<path d="M10804 15625 c22 -19 44 -35 49 -35 16 0 -13 28 -51 50 l-37 20 39
-35z"/>
<path d="M3534 15711 c3 -5 16 -11 28 -14 22 -6 22 -5 4 8 -22 17 -40 20 -32
6z"/>
<path d="M3634 15685 c11 -8 22 -12 25 -9 6 6 -19 24 -34 24 -5 -1 -1 -7 9
-15z"/>
<path d="M3017 15339 c-33 -50 -57 -93 -54 -95 8 -8 66 65 93 117 43 85 22 74
-39 -22z"/>
<path d="M9360 15710 c-9 -6 -10 -10 -3 -10 6 0 15 5 18 10 8 12 4 12 -15 0z"/>
<path d="M9270 15690 c-9 -6 -10 -10 -3 -10 6 0 15 5 18 10 8 12 4 12 -15 0z"/>
<path d="M9835 15420 c17 -58 108 -190 122 -176 2 2 -25 48 -62 103 -37 54
-63 87 -60 73z"/>
<path d="M10779 14472 c-46 -83 -180 -270 -251 -348 l-53 -58 47 32 c92 63
230 252 279 381 11 29 18 55 17 56 -2 2 -19 -27 -39 -63z"/>
<path d="M2100 14925 c0 -8 4 -15 10 -15 5 0 7 7 4 15 -4 8 -8 15 -10 15 -2 0
-4 -7 -4 -15z"/>
<path d="M2105 14510 c16 -53 57 -135 102 -203 54 -83 171 -208 222 -238 30
-18 26 -11 -29 47 -67 72 -200 247 -226 296 -29 56 -76 123 -69 98z"/>
<path d="M3602 12053 c3 -2661 4 -2792 22 -2883 33 -169 65 -281 109 -379 149
-333 414 -548 816 -666 274 -80 592 -110 1261 -119 300 -5 397 -9 436 -21 64
-19 149 -78 190 -132 l32 -42 28 41 c59 85 148 130 279 142 33 3 314 13 625
22 641 17 760 29 983 94 375 110 614 303 772 623 73 146 126 328 145 492 6 59
10 1034 10 2853 l0 2762 -2855 0 -2855 0 2 -2787z m5633 130 c-4 -1418 -10
-2668 -15 -2779 -12 -279 -48 -447 -135 -627 -173 -362 -508 -576 -1020 -652
-109 -17 -583 -34 -950 -35 -382 -1 -496 -21 -597 -105 l-53 -44 -25 23 c-31
29 -93 64 -145 83 -115 43 -142 45 -705 53 -321 4 -580 12 -630 19 -388 54
-678 169 -885 351 -187 164 -315 403 -371 690 -18 91 -19 211 -22 2848 l-2
2752 2780 0 2781 0 -6 -2577z"/>
<path d="M6228 14488 c-38 -10 -52 -28 -23 -28 9 0 19 -10 24 -22 12 -32 44
-179 39 -183 -2 -2 -44 44 -93 102 -88 102 -91 105 -125 99 -19 -3 -43 -6 -52
-6 -24 0 -23 -17 2 -25 29 -9 37 -30 54 -138 22 -134 21 -168 -4 -174 -23 -6
-26 -21 -7 -29 22 -8 110 10 115 24 2 7 -6 12 -21 12 -16 0 -28 9 -37 28 -12
24 -51 213 -45 220 1 1 51 -56 111 -128 60 -71 112 -130 117 -130 4 0 10 7 13
14 5 14 -18 236 -32 303 -5 25 -2 34 15 45 44 27 19 35 -51 16z"/>
<path d="M6570 14481 c0 -5 7 -15 16 -22 17 -14 17 -24 -6 -189 -16 -109 -24
-130 -52 -130 -40 0 -5 -17 50 -24 49 -6 72 4 37 18 -18 7 -19 80 -1 211 13
97 19 92 32 -33 13 -129 30 -207 45 -210 11 -2 32 39 74 142 32 80 61 144 63
142 6 -7 -18 -229 -28 -253 -6 -13 -18 -23 -30 -23 -11 0 -20 -4 -20 -9 0 -10
138 -36 147 -27 3 3 -3 13 -15 23 l-20 18 25 153 c24 138 28 152 47 152 32 0
6 16 -47 29 -55 13 -67 9 -67 -22 0 -12 -19 -64 -42 -115 -48 -107 -47 -108
-73 54 l-17 112 -46 6 c-60 8 -72 8 -72 -3z"/>
<path d="M5743 14381 c-117 -38 -144 -51 -101 -51 14 0 30 -6 36 -12 10 -14
82 -258 82 -281 0 -8 -8 -18 -17 -21 -11 -4 -13 -10 -6 -17 6 -6 50 5 129 32
65 24 121 44 123 45 2 2 -4 24 -14 50 -18 49 -35 45 -35 -7 0 -33 -40 -62 -78
-57 -31 3 -59 51 -64 108 -3 31 0 35 23 38 19 2 33 -4 48 -24 34 -43 37 -20 7
56 -29 74 -46 89 -46 41 0 -44 -38 -77 -57 -48 -14 21 -42 120 -37 129 3 4 26
8 51 8 34 0 53 -6 70 -22 31 -29 37 -19 16 29 l-18 40 -112 -36z"/>
<path d="M7105 14380 c-41 -17 -101 -94 -118 -152 -23 -75 -14 -130 28 -176
27 -30 40 -36 87 -40 51 -4 58 -2 92 29 62 54 96 123 96 195 0 80 -18 123 -60
140 -36 15 -94 17 -125 4z m118 -101 c-2 -74 -34 -157 -83 -213 -35 -40 -54
-44 -82 -19 -33 29 -24 100 26 207 35 76 49 95 72 104 21 7 34 6 49 -3 17 -11
20 -23 18 -76z"/>
<path d="M5470 14289 c-24 -11 -46 -21 -47 -23 -2 -2 8 -50 22 -107 14 -57 25
-110 25 -118 0 -12 -97 86 -149 150 l-17 21 -65 -33 c-61 -31 -63 -33 -35 -38
24 -5 38 -23 91 -118 73 -131 80 -152 59 -181 -18 -26 -12 -27 52 -6 60 20 56
18 48 38 -4 10 -13 15 -21 12 -30 -12 -55 18 -113 134 -33 66 -58 120 -56 120
2 0 39 -42 82 -92 43 -51 82 -95 86 -96 5 -2 22 -18 38 -35 22 -24 32 -29 41
-20 10 10 -13 134 -57 318 -3 11 24 -34 60 -100 64 -117 79 -169 54 -178 -7
-2 -10 -8 -6 -12 7 -7 128 43 128 54 0 3 -10 11 -21 16 -27 13 -168 287 -151
293 13 4 17 22 5 22 -5 0 -28 -10 -53 -21z"/>
<path d="M7420 14266 c0 -4 6 -15 12 -26 10 -16 10 -25 -3 -47 -9 -16 -42 -74
-74 -131 -54 -98 -58 -103 -84 -97 -35 9 -20 -4 53 -45 l58 -33 -7 32 c-5 24
-1 42 21 78 26 46 27 46 36 22 5 -13 6 -56 3 -95 l-7 -70 41 -19 c48 -21 55
-18 41 19 -5 15 -10 59 -10 97 0 66 1 69 24 69 32 0 82 50 90 92 5 26 2 36
-16 54 -25 23 -178 109 -178 100z m122 -101 c9 -37 2 -69 -23 -91 -17 -15 -63
-23 -74 -12 -9 8 67 139 78 135 6 -2 14 -16 19 -32z"/>
<path d="M5104 14096 c-39 -34 -43 -57 -5 -37 16 9 23 7 35 -11 9 -12 16 -26
16 -31 0 -5 16 -45 35 -89 20 -44 34 -83 31 -85 -7 -7 -187 119 -200 140 -8
13 -8 20 4 27 8 5 11 12 8 16 -10 9 -139 -76 -132 -87 3 -5 20 -9 39 -9 19 0
36 -4 39 -9 7 -10 244 -181 261 -187 7 -3 17 1 23 8 8 10 1 41 -29 123 -77
215 -81 227 -70 238 6 6 11 15 11 19 0 18 -29 6 -66 -26z"/>
<path d="M7756 14065 c4 -15 1 -30 -9 -39 -8 -9 -45 -62 -82 -120 -59 -94 -70
-105 -98 -108 l-32 -3 62 -42 c34 -24 64 -43 67 -43 3 0 1 11 -4 24 -7 20 3
40 67 137 85 127 98 140 131 132 48 -11 20 24 -43 55 l-65 32 6 -25z"/>
<path d="M7891 13933 c-28 -34 -38 -53 -27 -53 2 0 25 9 49 19 39 17 47 18 57
6 14 -17 14 -16 -105 -159 -77 -93 -81 -95 -115 -90 l-35 5 60 -55 c33 -30 64
-55 68 -56 5 0 6 14 2 31 -4 17 -3 34 2 38 4 3 51 54 102 114 90 103 95 107
112 91 23 -20 24 -42 4 -68 -8 -11 -15 -26 -15 -34 0 -18 31 7 61 50 l19 27
-95 83 c-53 46 -100 84 -104 86 -5 2 -23 -14 -40 -35z"/>
<path d="M6491 13926 c-8 -10 -9 -36 -1 -102 22 -199 8 -378 -39 -487 -20 -45
-121 -186 -182 -252 -37 -40 -61 -99 -95 -233 -16 -62 -32 -112 -36 -112 -3 0
-12 26 -19 58 -33 149 7 331 98 448 51 64 105 154 94 154 -5 0 -25 -22 -45
-48 -34 -47 -68 -81 -194 -192 -124 -109 -156 -230 -143 -530 4 -80 6 -146 5
-148 -1 -2 -16 17 -33 41 -18 24 -75 81 -127 126 l-95 83 35 -54 c76 -119 85
-230 24 -310 -54 -70 -73 -130 -73 -223 0 -93 26 -160 90 -233 46 -52 59 -48
17 5 -69 86 -66 181 12 384 40 103 44 122 39 172 -3 31 -3 57 0 57 13 0 52
-67 77 -135 25 -68 127 -231 138 -221 2 3 -5 24 -16 48 -18 40 -20 65 -21 362
-1 262 2 330 15 375 16 58 53 119 54 91 1 -8 2 -67 4 -130 1 -97 8 -140 41
-270 l40 -155 6 70 c17 185 86 335 266 578 77 104 105 171 123 295 10 76 16
84 30 48 27 -73 7 -217 -72 -500 l-41 -149 16 -131 c15 -124 54 -287 73 -306
5 -5 8 33 6 91 -3 80 0 113 18 172 21 71 78 187 91 187 4 0 10 -39 14 -87 7
-91 97 -435 103 -397 2 10 28 69 58 131 30 61 54 121 54 132 0 12 4 21 9 21 5
0 24 -64 42 -142 33 -140 34 -142 102 -237 82 -114 106 -163 107 -214 0 -50
-18 -91 -70 -156 -46 -59 -40 -58 32 1 67 55 92 113 85 191 -7 77 -27 124 -84
204 -53 74 -107 195 -167 376 -43 128 -92 247 -81 197 16 -77 17 -178 1 -233
-16 -54 -67 -129 -80 -116 -3 3 -20 81 -38 173 l-31 168 26 132 c33 165 44
251 30 243 -6 -4 -14 -28 -18 -54 -15 -99 -55 -203 -95 -247 -54 -59 -110
-154 -110 -188 0 -15 -5 -28 -11 -28 -20 0 0 118 67 404 53 225 55 205 -49
546 -20 64 -40 149 -46 189 -11 82 -13 87 -30 67z"/>
<path d="M4747 13812 l-48 -57 38 -5 c32 -4 52 -20 131 -103 76 -80 93 -103
88 -121 -3 -13 -3 -26 0 -29 4 -3 49 33 101 80 l94 87 -43 43 c-23 23 -43 41
-44 40 -2 -2 3 -22 12 -45 15 -46 11 -64 -24 -96 -13 -11 -25 -15 -34 -9 -7 4
-60 56 -117 116 -77 79 -102 110 -94 118 11 11 7 39 -6 39 -3 0 -28 -26 -54
-58z"/>
<path d="M8160 13726 c0 -29 -36 -94 -122 -224 -59 -88 -64 -98 -48 -117 10
-12 21 -10 78 20 36 19 72 35 80 35 8 0 35 11 61 24 89 47 121 58 146 52 32
-8 32 -3 -7 45 -37 46 -50 49 -42 11 5 -26 1 -30 -86 -75 -50 -26 -102 -52
-116 -58 l-26 -9 23 37 c12 21 34 59 48 84 44 76 68 101 91 94 32 -10 24 7
-30 60 -50 49 -50 49 -50 21z"/>
<path d="M4499 13553 c-1 -5 -2 -13 -3 -19 0 -6 -16 -25 -33 -42 -25 -22 -33
-39 -33 -64 0 -52 52 -108 107 -115 36 -5 51 0 113 36 l71 41 30 -22 c31 -24
37 -53 16 -83 -11 -14 -29 -18 -83 -20 -38 -1 -71 -3 -74 -4 -7 -3 103 -60
117 -61 7 0 10 7 7 15 -4 9 3 19 20 26 31 14 51 43 60 87 15 63 -54 132 -133
132 -17 0 -51 -15 -81 -35 -28 -19 -56 -35 -63 -36 -22 -4 -48 13 -61 40 -23
43 -2 61 72 61 93 0 90 11 -15 56 -18 8 -34 11 -34 7z"/>
<path d="M8400 13441 c0 -26 -8 -34 -82 -74 -198 -106 -188 -102 -209 -89 -10
7 -19 10 -19 7 0 -8 70 -115 76 -115 3 0 2 5 -1 10 -10 16 13 39 67 66 26 13
50 24 53 24 13 0 2 -24 -44 -91 l-49 -72 21 -43 c21 -44 37 -57 37 -30 0 7 21
50 46 94 l45 80 28 -15 c35 -21 67 -13 115 29 34 30 37 36 29 63 -10 36 -95
184 -105 185 -5 0 -8 -13 -8 -29z m60 -90 c14 -27 -6 -68 -41 -87 -36 -18 -83
-18 -98 0 -10 12 0 23 56 60 37 25 69 46 70 46 1 0 7 -9 13 -19z"/>
<path d="M4321 13261 c-17 -32 -31 -64 -31 -70 0 -15 17 -14 31 2 8 9 41 -3
150 -56 122 -60 139 -71 139 -93 0 -38 13 -29 48 35 37 67 42 93 14 68 -10
-10 -24 -17 -31 -17 -7 0 -71 30 -142 66 -121 61 -129 67 -129 95 0 44 -14 35
-49 -30z"/>
<path d="M8578 13148 c-2 -12 -32 -46 -68 -76 -159 -134 -212 -187 -205 -204
4 -10 11 -15 16 -12 5 3 69 12 142 19 72 8 149 17 170 21 28 5 43 2 56 -11 28
-24 33 -4 14 49 -18 47 -35 55 -42 20 -6 -34 -20 -41 -98 -47 -43 -4 -96 -9
-118 -13 l-40 -5 45 41 c78 71 164 133 168 121 2 -6 10 -11 17 -11 10 0 6 17
-13 65 -27 68 -38 80 -44 43z"/>
<path d="M4170 12928 c-38 -76 -47 -104 -38 -110 8 -4 18 -2 24 7 17 23 33 19
161 -34 65 -27 126 -52 136 -55 13 -4 17 -12 12 -26 -4 -13 -2 -20 7 -20 8 0
23 27 35 65 l21 66 -20 -7 c-22 -7 -135 14 -143 26 -9 14 41 29 118 35 84 7
85 8 103 80 6 22 4 23 -23 15 -51 -16 -107 -29 -150 -35 -39 -5 -43 -3 -43 16
0 11 -14 34 -31 50 -25 23 -40 29 -75 29 l-45 0 -49 -102z m143 10 c19 -14 27
-28 27 -49 0 -16 -4 -29 -9 -29 -6 0 -41 12 -80 26 -70 26 -70 26 -55 49 25
38 65 39 117 3z"/>
<path d="M8603 12795 c-35 -15 -53 -41 -53 -79 0 -14 -4 -28 -10 -31 -5 -3
-10 -16 -10 -29 0 -44 -59 -75 -96 -51 -40 26 -32 70 21 118 25 22 45 44 45
48 0 7 -118 -28 -129 -38 -3 -2 0 -8 6 -14 6 -6 8 -29 6 -52 -9 -88 72 -147
160 -116 34 11 47 24 69 64 15 28 28 64 28 80 0 39 9 52 42 60 38 10 68 -10
68 -45 0 -29 -22 -60 -43 -60 -7 0 -18 -9 -25 -20 -7 -11 -8 -20 -3 -20 29 0
111 23 111 31 0 5 -5 9 -11 9 -7 0 -9 10 -5 25 10 41 -14 104 -45 121 -35 18
-84 17 -126 -1z"/>
<path d="M6321 12684 c-37 -83 -79 -217 -101 -319 -20 -97 -40 -337 -26 -324
4 4 18 60 32 125 13 66 30 142 37 171 l12 52 46 -58 c76 -96 97 -140 112 -232
11 -68 15 -79 22 -59 4 14 8 55 8 92 0 70 -10 96 -109 278 -35 64 -35 67 -29
150 4 46 10 103 14 127 5 24 7 43 5 43 -2 0 -12 -21 -23 -46z"/>
<path d="M4062 12590 c-30 -120 -27 -151 9 -106 l17 20 127 -28 c161 -35 173
-40 187 -73 10 -26 13 -19 40 91 16 66 27 125 24 131 -2 7 -21 16 -41 19 -20
4 -44 10 -53 13 -9 3 1 -10 22 -29 35 -31 38 -38 33 -67 -10 -46 -32 -67 -60
-53 -12 6 -41 13 -65 15 -54 7 -59 11 -42 42 10 19 21 25 47 25 55 0 37 14
-47 36 -83 22 -101 18 -50 -13 19 -11 30 -25 30 -40 0 -27 -20 -29 -100 -12
-42 9 -50 14 -50 33 0 30 35 66 65 66 38 0 30 14 -19 32 l-44 16 -30 -118z"/>
<path d="M6641 12364 c-1 -46 -9 -80 -38 -145 -28 -64 -37 -100 -39 -154 l-3
-70 16 50 c20 63 80 158 96 153 20 -7 76 -129 83 -181 l7 -48 17 38 c21 48 67
103 86 103 20 0 28 -43 20 -112 -4 -45 -3 -59 7 -56 19 7 39 77 39 140 0 62
-31 208 -44 208 -4 0 -8 -6 -8 -12 -1 -22 -47 -127 -72 -164 -25 -37 -38 -43
-38 -19 0 20 -61 184 -99 267 l-30 63 0 -61z"/>
<path d="M4024 12304 c-4 -44 -8 -104 -8 -134 l-1 -55 50 -7 c46 -6 76 -1 48
9 -29 10 -78 50 -81 66 -4 20 38 22 222 10 101 -6 108 -8 117 -30 17 -45 29
-24 29 52 0 62 -2 73 -15 69 -8 -4 -15 -10 -15 -15 0 -6 -30 -8 -72 -5 -40 3
-113 8 -161 12 -88 6 -88 6 -85 32 2 21 10 28 41 35 39 9 51 27 18 27 -10 0
-32 3 -49 6 l-30 6 -8 -78z"/>
<path d="M8810 12356 c0 -28 -28 -34 -182 -41 -142 -7 -158 -6 -158 9 0 9 -4
16 -10 16 -11 0 -14 -189 -4 -227 6 -21 12 -23 68 -22 l61 1 -45 19 c-44 19
-70 52 -70 90 0 27 21 36 98 42 l72 6 0 -29 c0 -23 -7 -33 -32 -47 -27 -14
-30 -18 -14 -21 31 -7 147 9 141 19 -4 5 -16 9 -29 9 -28 0 -46 18 -46 47 0
22 3 23 75 23 l75 0 0 -39 c0 -35 -5 -42 -37 -63 l-38 -23 49 -3 c26 -2 50 -1
52 1 8 7 -9 247 -18 247 -4 0 -8 -6 -8 -14z"/>
<path d="M5870 12237 c5 -16 10 -58 10 -95 0 -77 17 -114 74 -157 47 -36 57
-25 18 20 -29 32 -60 111 -48 122 13 13 120 -77 144 -122 9 -15 11 -16 12 -4
0 24 -48 86 -140 181 -60 61 -78 76 -70 55z"/>
<path d="M4219 12015 c-34 -18 -69 -77 -69 -115 0 -40 -24 -60 -71 -60 -68 0
-67 62 2 106 23 14 39 27 37 30 -3 2 -30 -1 -61 -7 -54 -11 -71 -23 -46 -31 9
-3 9 -10 -1 -27 -10 -19 -10 -31 0 -62 17 -50 47 -69 108 -69 42 0 52 4 85 38
20 21 37 45 37 55 0 9 7 34 16 56 18 45 54 59 92 35 42 -27 20 -99 -40 -130
-42 -22 -29 -27 47 -19 46 5 65 11 65 21 0 8 -7 14 -15 14 -13 0 -15 7 -9 35
3 19 3 50 0 68 -12 63 -111 98 -177 62z"/>
<path d="M8455 12008 c-2 -7 -6 -53 -9 -103 -6 -99 5 -135 54 -173 58 -44 163
-55 236 -25 35 15 46 26 67 73 14 32 27 84 31 125 l7 70 -23 -27 -23 -28 -145
25 c-80 14 -146 25 -148 25 -1 0 -7 11 -12 25 -10 27 -28 33 -35 13z m222
-124 c76 -12 117 -22 120 -31 17 -45 -60 -99 -127 -89 -125 18 -161 29 -185
58 -29 35 -31 51 -8 73 12 12 26 15 51 11 19 -3 86 -13 149 -22z"/>
<path d="M6310 11979 c-273 -34 -493 -115 -606 -224 -74 -72 -97 -123 -92
-200 3 -53 9 -69 43 -115 45 -61 148 -133 251 -174 135 -55 162 -69 172 -90 6
-11 16 -70 22 -131 l12 -109 -38 -32 c-26 -22 -53 -35 -85 -39 -65 -9 -120
-58 -160 -143 -18 -37 -47 -84 -65 -104 -63 -70 -78 -112 -76 -213 2 -58 -4
-114 -15 -157 l-17 -67 27 -93 c14 -51 29 -127 32 -168 10 -126 12 -133 73
-206 38 -45 57 -76 54 -89 -16 -92 -91 -186 -241 -302 -69 -53 -172 -137 -230
-187 -116 -99 -414 -387 -407 -393 8 -9 83 37 147 88 36 30 158 128 270 218
112 90 233 189 268 220 59 52 64 54 57 29 -19 -77 43 14 119 173 55 118 70
133 96 100 15 -18 20 -20 25 -8 9 25 -22 83 -81 147 -68 74 -85 111 -85 187
-1 32 -8 92 -17 133 -8 41 -15 109 -15 150 3 227 8 296 21 320 23 40 111 154
111 143 0 -10 43 -33 62 -33 6 0 4 8 -5 18 -10 10 -17 24 -17 30 0 7 -9 12
-20 12 -24 0 -26 20 -6 58 37 71 124 115 377 187 105 30 195 57 199 60 12 8
115 -23 156 -46 53 -30 72 -47 105 -93 34 -45 37 -76 10 -100 -16 -15 -19 -15
-31 -1 -18 22 -27 19 -33 -11 -4 -23 -2 -25 20 -21 22 4 23 3 7 -14 -16 -17
-18 -17 -54 12 -20 16 -52 32 -72 35 -30 5 -118 -11 -170 -31 -13 -5 -20 0
-27 17 -12 31 -43 58 -48 41 -2 -7 -11 -9 -19 -6 -9 3 -14 -2 -14 -15 0 -16 7
-21 32 -24 55 -5 41 -23 -39 -48 -76 -24 -77 -25 -39 -28 38 -3 148 12 182 25
15 5 14 3 -1 -26 -19 -38 -25 -112 -9 -118 7 -2 15 11 18 29 4 18 13 42 21 52
15 19 15 19 15 -2 0 -36 15 -25 37 28 24 55 21 61 -15 28 l-24 -23 4 25 c3 23
8 25 55 28 102 6 136 -38 148 -191 5 -60 3 -77 -7 -75 -8 2 -14 -11 -16 -36
-4 -41 12 -43 28 -2 7 16 9 8 9 -31 1 -29 6 -53 11 -53 6 0 10 20 10 45 0 46
9 56 28 32 8 -10 8 -24 1 -51 -6 -21 -8 -40 -5 -43 12 -13 36 8 36 32 0 32 14
32 82 0 29 -14 61 -25 71 -25 26 0 22 -52 -8 -84 -26 -28 -45 -32 -76 -16 -17
10 -18 13 -4 33 9 14 11 28 6 36 -7 11 -11 9 -20 -8 -17 -31 -48 -26 -105 18
-73 55 -105 69 -188 82 -141 20 -141 20 -163 64 -18 34 -25 40 -50 38 -55 -4
-90 -15 -123 -40 -37 -28 -35 -44 2 -23 14 7 35 10 48 7 16 -5 30 1 50 20 l27
26 10 -24 c20 -51 -56 -76 -203 -66 -44 3 -91 9 -103 13 -17 5 -23 2 -23 -10
0 -10 8 -16 23 -16 13 0 52 -10 87 -21 58 -20 70 -21 139 -10 121 18 241 14
305 -9 68 -26 222 -121 258 -160 54 -58 46 -179 -15 -224 -27 -20 -28 -20 -55
-2 -108 71 -298 126 -439 126 l-68 1 44 39 c40 37 42 40 19 40 -23 0 -68 -46
-68 -70 0 -5 -7 -10 -17 -10 -15 0 -15 1 0 18 19 21 23 52 6 52 -15 0 -48 -42
-49 -61 0 -12 -13 -19 -42 -23 -46 -7 -76 -21 -67 -31 4 -3 80 -10 169 -15
290 -18 393 -42 467 -113 39 -37 48 -72 33 -128 -13 -47 -67 -109 -96 -109
-16 0 -16 1 1 20 25 27 16 33 -36 21 -70 -17 -82 -15 -77 13 l5 23 -55 -24
c-77 -34 -142 -46 -176 -33 -24 9 -27 15 -25 45 4 47 -6 53 -26 15 -11 -21
-21 -29 -33 -26 -9 3 -35 8 -57 12 -39 7 -40 6 -22 -13 24 -27 22 -31 -15 -35
l-33 -3 45 -22 c25 -12 57 -25 73 -28 33 -7 37 -35 5 -35 -13 -1 -36 -7 -53
-14 -30 -13 -29 -13 34 -20 l63 -7 -21 -23 c-26 -28 -26 -36 -2 -36 23 0 27
-12 36 -103 6 -65 6 -69 -24 -103 -39 -44 -41 -91 -5 -162 50 -100 150 -157
223 -126 52 22 67 39 118 132 l45 83 -17 44 c-14 37 -15 65 -9 175 6 121 8
130 25 125 10 -4 28 0 40 9 12 8 27 12 34 10 7 -3 18 8 25 25 16 39 30 40 30
1 0 -47 17 -35 36 26 17 53 17 56 0 88 -12 23 -16 44 -11 64 5 25 13 32 48 41
48 12 104 55 130 100 l18 31 -43 0 -43 1 30 24 c17 14 46 30 64 36 l35 12 -40
34 c-21 19 -33 32 -26 28 6 -3 12 -1 12 4 0 6 22 23 50 39 52 28 62 42 32 42
-27 0 -62 29 -62 50 0 11 5 17 13 15 6 -3 26 6 42 20 l30 25 -22 19 -22 18 39
12 c43 13 62 31 32 31 -10 0 -21 3 -24 6 -5 5 89 151 114 179 16 17 -3 -107
-20 -137 -15 -26 -15 -29 0 -40 13 -10 15 -21 10 -48 -6 -28 -13 -36 -35 -38
-15 -2 -27 -5 -27 -6 0 -2 9 -38 20 -81 48 -187 4 -297 -140 -349 l-61 -22 40
-16 c50 -20 56 -48 10 -48 -17 0 -39 5 -51 11 -24 13 -34 6 -19 -13 54 -65 61
-78 61 -113 0 -97 -65 -255 -140 -338 -45 -50 -125 -97 -167 -97 -13 0 -23 -4
-23 -10 0 -5 5 -10 11 -10 21 0 -4 -46 -53 -97 -64 -65 -56 -88 13 -37 43 31
49 33 49 16 0 -24 -63 -87 -144 -145 -80 -57 -136 -107 -136 -121 0 -7 -20
-54 -45 -104 -47 -97 -111 -198 -207 -324 -33 -44 -53 -78 -45 -78 22 0 105
59 141 101 39 46 135 199 200 320 35 66 61 100 108 140 93 81 121 114 189 229
35 58 72 111 84 119 51 35 154 151 174 196 26 58 51 177 51 242 0 38 9 60 51
126 100 156 136 267 124 385 -4 41 0 120 9 202 9 74 16 171 17 215 0 44 1 107
2 141 2 78 -37 162 -94 204 -70 51 -142 58 -342 34 l-47 -6 6 114 c4 62 11
118 15 124 5 6 42 22 82 34 115 36 176 67 246 124 76 61 126 138 140 211 12
63 -8 113 -76 193 -157 183 -545 301 -863 261z m413 -68 c233 -54 413 -166
473 -294 34 -73 32 -93 -11 -107 -63 -21 -91 7 -30 29 19 7 35 19 35 27 0 18
-11 18 -36 -1 -29 -22 -41 -19 -102 31 -105 86 -291 164 -476 200 -78 15 -106
16 -235 6 -291 -23 -484 -122 -600 -310 -23 -38 -87 55 -76 111 19 88 85 152
220 217 104 49 187 76 310 100 135 26 396 22 528 -9z m-115 -162 c53 -12 135
-37 182 -56 136 -56 132 -49 48 -97 -40 -23 -91 -53 -113 -66 l-40 -23 36 39
c39 42 69 84 69 96 0 14 -61 39 -80 33 -10 -3 -33 -28 -50 -56 -30 -46 -64
-79 -82 -79 -4 0 4 24 18 54 29 64 25 102 -14 117 -18 7 -31 5 -49 -7 -30 -19
-62 -87 -63 -131 0 -26 -4 -33 -19 -33 -22 0 -31 26 -31 88 0 54 -28 84 -73
80 l-32 -3 -3 -82 c-3 -90 -19 -109 -42 -53 -16 38 -86 102 -108 98 -27 -5
-26 -45 2 -97 l25 -49 -22 -6 c-15 -4 -25 0 -32 11 -26 45 -72 81 -112 88 -23
3 -47 4 -53 0 -12 -7 5 -52 44 -114 15 -24 25 -45 23 -48 -3 -2 -31 16 -62 41
-66 55 -115 63 -115 21 0 -15 15 -41 36 -65 36 -40 35 -53 -2 -25 -24 19 -63
19 -70 1 -3 -8 2 -27 11 -43 l17 -28 -26 30 c-74 85 8 209 199 300 77 36 132
53 250 78 62 13 242 6 333 -14z m-226 -86 c19 -17 24 -68 8 -93 -15 -24 -32 2
-38 59 -5 54 1 61 30 34z m196 -11 c5 -33 -35 -112 -54 -105 -8 3 -13 11 -11
17 2 6 12 35 22 64 17 53 37 64 43 24z m160 -1 c12 -7 11 -14 -2 -40 -16 -29
-94 -96 -103 -87 -5 5 79 136 87 136 3 0 11 -4 18 -9z m-532 -28 c25 -27 39
-63 32 -84 -5 -14 -68 77 -68 98 0 19 8 16 36 -14z m784 -61 c-10 -2 -39 -21
-63 -42 -25 -22 -58 -44 -73 -50 l-29 -11 27 23 c35 30 78 96 78 120 0 18 4
17 39 -9 32 -22 36 -29 21 -31z m-895 -24 c25 -29 26 -33 10 -36 -35 -7 -95
48 -95 87 0 18 54 -14 85 -51z m753 5 c-45 -47 -53 -41 -16 12 22 31 34 41 40
33 4 -8 -5 -25 -24 -45z m221 -60 c6 -12 11 -39 11 -60 0 -49 -35 -85 -109
-113 -58 -23 -71 -24 -71 -10 0 6 10 10 23 10 45 0 114 68 129 128 9 31 -17
29 -75 -8 -26 -16 -49 -30 -51 -30 -1 0 17 20 41 46 24 25 46 58 50 74 l5 30
18 -23 c9 -12 22 -32 29 -44z m-90 30 c-1 -14 -102 -92 -111 -87 -5 3 8 17 29
31 21 14 44 34 51 44 13 19 33 26 31 12z m-1046 -19 c56 -29 86 -64 54 -64
-19 0 -107 58 -107 70 0 14 16 12 53 -6z m686 -4 c79 -11 164 -52 193 -92 13
-19 22 -47 22 -71 1 -38 -2 -42 -31 -50 -28 -8 -44 -5 -110 25 -192 88 -414
88 -540 2 -45 -31 -58 -35 -88 -30 -26 5 -39 14 -46 33 -16 41 -8 56 51 91
130 77 371 118 549 92z m-664 -133 c6 -6 0 -6 -15 -2 -14 4 -32 14 -40 22 -13
13 -11 13 15 2 17 -7 35 -17 40 -22z m1015 28 c0 -2 -10 -9 -22 -15 -22 -11
-22 -10 -4 4 21 17 26 19 26 11z m-470 -60 c73 -9 140 -42 168 -85 22 -33 24
-42 19 -145 -4 -114 -12 -148 -30 -142 -27 9 -31 37 -19 132 15 119 6 148 -48
153 -46 5 -60 -17 -60 -92 0 -68 -13 -103 -23 -64 -4 12 -7 46 -7 73 0 59 -27
119 -55 123 -24 3 -73 -40 -80 -71 -3 -12 -6 -60 -7 -106 -2 -61 -7 -86 -17
-89 -11 -4 -12 5 -7 40 15 101 -25 218 -75 218 -27 0 -36 -25 -54 -151 -10
-63 -22 -123 -28 -134 -10 -19 -11 -19 -18 5 -11 40 -10 214 2 249 16 45 81
81 166 91 38 4 79 6 93 4 14 -2 50 -6 80 -9z m-63 -200 c4 -40 1 -70 -7 -86
-13 -23 -13 -23 -21 -4 -9 25 -11 147 -3 170 7 16 8 16 17 0 5 -10 12 -46 14
-80z m-146 63 c16 -30 6 -187 -12 -199 -34 -21 -39 -10 -39 84 0 50 3 102 6
115 8 28 30 28 45 0z m313 -4 c17 -44 -10 -164 -34 -149 -11 7 -13 70 -4 128
7 38 27 50 38 21z m471 -302 c63 -31 100 -85 111 -164 l6 -43 -19 23 c-22 27
-33 20 -33 -20 0 -18 5 -28 15 -28 20 0 19 -24 -5 -68 -35 -67 -39 -69 -37
-21 2 61 -22 95 -90 126 -44 20 -63 24 -99 18 -30 -4 -44 -3 -44 5 0 7 -13 10
-32 8 -24 -2 -38 -12 -55 -37 -24 -35 -31 -81 -13 -81 6 0 4 -13 -5 -30 -8
-16 -15 -33 -15 -38 0 -18 83 -103 126 -128 48 -28 75 -27 110 3 11 10 26 19
34 21 8 2 23 11 33 19 32 29 17 -2 -19 -39 -54 -56 -90 -64 -172 -39 -80 24
-125 65 -142 129 -23 88 39 221 157 340 72 72 73 72 115 66 24 -4 57 -13 73
-22z m-115 -232 c41 -21 73 -57 64 -72 -7 -10 -46 13 -85 48 -31 29 -49 31
-49 4 0 -21 72 -80 97 -80 7 0 13 -2 13 -5 0 -17 -53 -107 -66 -112 -20 -7
-54 8 -96 46 -34 30 -35 32 -27 78 7 37 17 56 45 81 44 38 52 39 104 12z m117
-69 c4 -16 -2 -39 -17 -68 -28 -53 -35 -51 -16 5 13 37 13 47 1 83 -8 23 -15
44 -15 48 1 13 40 -45 47 -68z m-849 -933 c19 -19 14 -25 -18 -20 -29 4 -37
12 -23 25 10 11 28 8 41 -5z m279 -145 c-2 -16 -4 -3 -4 27 0 30 2 43 4 28 2
-16 2 -40 0 -55z m-162 25 c3 -18 5 -66 3 -107 -4 -98 -24 -107 -32 -14 -15
161 -15 153 5 153 13 0 20 -10 24 -32z m233 -93 c2 -45 2 -99 -2 -120 -7 -34
-9 -37 -34 -30 -15 4 -68 9 -119 12 l-92 5 15 24 c9 13 18 50 21 83 5 57 23
77 23 27 0 -76 58 -126 120 -105 28 10 30 14 30 62 0 29 3 76 7 106 9 74 24
43 31 -64z m-108 -34 c-17 -64 -23 -43 -14 51 l8 83 9 -46 c6 -30 5 -60 -3
-88z m-53 22 c-2 -21 -4 -6 -4 32 0 39 2 55 4 38 2 -18 2 -50 0 -70z m131
-190 c24 -14 41 -27 38 -30 -3 -3 -12 0 -20 6 -9 7 -21 9 -28 5 -22 -14 -152
-4 -161 12 -7 12 -12 12 -30 2 -24 -13 -67 -18 -67 -7 0 3 24 16 53 27 67 27
152 21 215 -15z m-258 -68 c7 -9 10 -18 7 -22 -8 -7 -37 15 -37 28 0 14 16 11
30 -6z m174 1 c33 -14 63 -42 32 -30 -11 4 -16 0 -16 -13 0 -11 -12 -30 -26
-44 l-26 -24 -29 33 c-16 17 -32 32 -35 32 -12 0 4 -83 18 -91 7 -5 30 -9 50
-9 29 0 41 6 56 28 11 15 22 36 25 47 4 16 5 14 6 -7 3 -64 -40 -106 -94 -92
-34 8 -84 55 -91 87 -5 23 0 33 31 62 41 39 51 41 99 21z m126 -16 c0 -5 -7
-10 -15 -10 -8 0 -15 5 -15 10 0 6 7 10 15 10 8 0 15 -4 15 -10z"/>
<path d="M6576 11857 c-9 -33 -8 -37 9 -37 9 0 15 9 15 24 0 33 -16 42 -24 13z"/>
<path d="M6450 11850 c0 -6 7 -10 15 -10 8 0 15 2 15 4 0 2 -7 6 -15 10 -8 3
-15 1 -15 -4z"/>
<path d="M6490 11850 c0 -5 5 -10 10 -10 6 0 10 5 10 10 0 6 -4 10 -10 10 -5
0 -10 -4 -10 -10z"/>
<path d="M6666 11844 c-10 -25 -7 -34 9 -28 17 7 20 30 6 38 -5 3 -12 -1 -15
-10z"/>
<path d="M6697 11829 c-11 -39 -8 -43 13 -24 18 16 20 16 20 2 0 -10 5 -17 10
-17 6 0 10 7 10 15 0 8 4 15 9 15 5 0 14 -7 21 -15 16 -19 40 -19 40 0 0 18
-27 33 -77 41 -36 5 -41 4 -46 -17z"/>
<path d="M6947 11774 c-12 -12 -8 -37 9 -55 16 -18 17 -17 35 5 24 30 24 36 1
36 -10 0 -23 5 -28 10 -6 6 -13 7 -17 4z"/>
<path d="M7021 11731 c-16 -30 -14 -64 4 -58 8 4 17 1 21 -4 3 -6 17 -8 30 -5
28 7 30 0 7 -26 -15 -17 -15 -18 10 -18 17 0 28 6 29 15 0 8 1 18 2 23 1 4 -9
21 -22 37 -19 24 -25 27 -32 15 -8 -13 -10 -13 -10 1 0 9 -6 22 -14 28 -12 10
-17 8 -25 -8z"/>
<path d="M7125 11610 c-32 -34 -30 -44 9 -34 21 5 26 12 26 35 0 16 -1 29 -3
29 -2 0 -16 -13 -32 -30z"/>
<path d="M6451 11444 c-14 -31 -15 -28 27 -42 l32 -11 0 40 c0 34 -3 39 -23
39 -16 0 -28 -9 -36 -26z"/>
<path d="M6382 11452 c-13 -2 -21 -9 -19 -15 4 -14 57 -23 57 -10 0 18 -16 28
-38 25z"/>
<path d="M6649 11443 c-22 -5 -42 -47 -35 -71 6 -17 12 -19 29 -13 18 7 29 2
57 -25 20 -20 45 -34 60 -34 20 0 22 -2 10 -10 -21 -14 5 -13 31 0 23 13 27
63 4 54 -11 -4 -15 1 -16 17 l0 24 -11 -22 c-16 -33 -29 -28 -22 7 6 25 3 31
-20 40 -35 13 -36 13 -36 -5 0 -8 -4 -15 -10 -15 -5 0 -10 11 -10 24 0 28 -7
34 -31 29z"/>
<path d="M6128 11416 c-10 -7 -18 -18 -18 -23 0 -6 -8 -10 -17 -9 -13 1 -18
-6 -17 -21 1 -26 -6 -29 -24 -11 -9 9 -12 8 -12 -4 0 -21 63 -75 68 -59 2 7
-1 18 -8 26 -9 11 -7 12 11 8 14 -4 25 0 31 11 5 9 20 16 33 16 19 0 25 5 25
21 0 11 4 18 9 15 5 -3 14 1 21 9 7 8 17 12 24 8 7 -4 8 -3 1 4 -5 6 -20 14
-32 18 -18 5 -23 2 -23 -11 0 -16 -1 -16 -18 -1 -22 20 -31 21 -54 3z"/>
<path d="M6576 11405 c-3 -9 0 -15 9 -15 16 0 20 16 6 24 -5 3 -11 -1 -15 -9z"/>
<path d="M6958 10883 c-37 -9 -18 -31 30 -36 26 -2 57 -8 70 -12 28 -9 29 8 2
35 -19 19 -60 24 -102 13z"/>
<path d="M7080 10805 c0 -12 54 -65 67 -65 20 0 16 14 -15 43 -25 24 -52 35
-52 22z"/>
<path d="M8426 11690 c-2 -8 -9 -30 -15 -49 -13 -40 -5 -54 15 -27 13 19 14
19 49 0 41 -22 43 -29 30 -91 -5 -20 -12 -23 -55 -23 -43 0 -50 3 -50 20 0 27
-28 25 -35 -2 -13 -57 -23 -123 -18 -128 2 -3 10 3 17 13 11 14 29 17 97 17
109 0 292 21 301 34 4 7 -20 25 -61 46 -121 62 -239 143 -255 175 -10 21 -16
25 -20 15z m224 -186 c0 -2 -27 -4 -59 -4 -56 0 -59 1 -54 23 10 47 11 47 63
15 27 -17 50 -33 50 -34z"/>
<path d="M4230 11671 c-84 -23 -104 -36 -142 -94 -29 -46 -30 -50 -18 -87 7
-21 28 -54 47 -72 33 -32 37 -33 116 -33 71 0 89 4 133 28 62 35 94 85 94 149
0 55 -21 85 -77 109 -54 23 -69 23 -153 0z m178 -67 c33 -23 29 -67 -9 -94
-37 -27 -157 -60 -219 -60 -48 0 -90 21 -90 45 0 8 20 31 45 52 70 59 224 91
273 57z"/>
<path d="M8282 11279 c-29 -64 -30 -97 -2 -64 7 8 21 15 31 15 24 0 279 -127
279 -139 0 -19 -38 -40 -80 -43 l-45 -3 49 -23 c27 -12 53 -21 57 -20 5 2 33
54 63 115 l55 113 -22 13 c-12 8 -34 21 -48 30 -36 22 -45 9 -15 -22 32 -34
40 -65 22 -80 -11 -10 -41 1 -148 55 -155 77 -162 82 -148 99 8 9 6 14 -4 18
-9 4 -23 -15 -44 -64z"/>
<path d="M4245 11304 c-44 -23 -65 -45 -65 -68 0 -30 65 -197 76 -197 5 0 10
9 12 20 2 14 36 33 135 75 143 60 161 65 175 40 5 -9 14 -14 20 -10 7 4 1 28
-19 69 -32 68 -46 80 -51 45 -3 -24 -35 -44 -85 -54 -25 -5 -33 -1 -56 34 -43
60 -87 75 -142 46z m135 -79 c8 -10 9 -19 4 -24 -10 -10 -132 -51 -150 -51
-26 0 -24 33 3 62 23 24 35 28 79 28 34 0 56 -5 64 -15z"/>
<path d="M6451 10931 c-7 -11 -16 -20 -22 -18 -6 1 -20 -10 -31 -24 -17 -22
-19 -35 -13 -78 5 -35 11 -51 22 -51 11 0 13 10 9 48 l-5 47 10 -37 c15 -53
39 -50 39 4 0 23 5 57 12 75 9 24 9 36 1 44 -8 8 -14 6 -22 -10z"/>
<path d="M6551 10892 c-7 -26 -16 -56 -21 -67 -22 -52 -21 -53 28 -48 71 7 72
7 72 63 0 64 -15 64 -31 0 -18 -72 -31 -62 -23 19 8 81 -6 100 -25 33z"/>
<path d="M6641 10779 c-14 -45 -9 -58 14 -39 16 13 21 80 7 80 -5 0 -14 -18
-21 -41z"/>
<path d="M5946 10695 c-8 -21 3 -44 25 -56 23 -12 26 6 7 46 -13 28 -23 32
-32 10z"/>
<path d="M5990 10690 c0 -11 7 -20 15 -20 17 0 18 2 9 24 -9 23 -24 20 -24 -4z"/>
<path d="M6600 10599 c0 -46 -6 -73 -20 -97 -29 -47 -26 -56 15 -49 31 5 50
-6 26 -15 -4 -1 -12 -13 -15 -25 -11 -36 20 -29 40 9 15 28 15 32 0 40 -13 7
-16 26 -16 92 0 62 -4 87 -15 96 -13 11 -15 4 -15 -51z"/>
<path d="M6108 10643 c12 -2 32 -2 45 0 12 2 2 4 -23 4 -25 0 -35 -2 -22 -4z"/>
<path d="M6508 10554 c-11 -11 -10 -104 1 -104 6 0 12 4 15 8 8 13 -8 105 -16
96z"/>
<path d="M6425 10490 c-9 -15 14 -40 37 -40 19 0 19 2 6 22 -18 26 -34 33 -43
18z"/>
<path d="M5830 10433 c0 -20 47 -83 62 -83 6 0 8 9 5 21 l-6 21 23 -21 c12
-11 28 -21 34 -21 17 0 -8 48 -43 80 l-27 25 8 -30 7 -30 -26 28 c-30 31 -37
33 -37 10z"/>
<path d="M5778 10415 c-7 -8 11 -45 27 -57 14 -11 25 -10 25 1 0 16 -45 63
-52 56z"/>
<path d="M6486 10275 c-25 -52 -32 -128 -13 -143 9 -8 18 -9 21 -4 8 13 20
182 14 182 -3 0 -13 -16 -22 -35z"/>
<path d="M6430 10287 c0 -7 -9 -30 -19 -51 -15 -28 -17 -44 -10 -63 5 -13 9
-37 9 -53 0 -28 15 -48 27 -36 3 3 7 34 8 68 1 35 5 79 9 99 7 29 5 37 -8 42
-9 4 -16 1 -16 -6z"/>
<path d="M6606 10239 c-3 -17 -6 -47 -6 -65 0 -24 -5 -34 -15 -34 -13 0 -14 4
-5 21 7 11 8 24 4 27 -4 4 -9 1 -11 -6 -3 -7 -16 -26 -29 -41 -13 -16 -24 -32
-24 -35 0 -12 88 -6 99 8 6 7 14 40 17 72 5 46 3 62 -9 72 -12 10 -15 7 -21
-19z"/>
<path d="M6866 10224 l-18 -26 28 4 c21 2 29 9 29 22 0 29 -18 29 -39 0z"/>
<path d="M5772 10198 c-17 -17 -15 -34 11 -78 19 -34 37 -51 37 -35 0 8 -30
118 -33 121 -2 2 -9 -2 -15 -8z"/>
<path d="M5825 10187 c-8 -32 10 -73 35 -80 15 -4 20 -2 17 8 -3 7 -11 31 -18
54 -14 46 -26 52 -34 18z"/>
<path d="M5880 10178 c1 -23 21 -58 34 -58 14 0 5 41 -14 60 l-20 20 0 -22z"/>
<path d="M6352 10097 c-22 -23 -29 -47 -14 -47 4 0 20 16 35 35 32 40 14 50
-21 12z"/>
<path d="M6626 10074 c-23 -35 -27 -62 -6 -49 13 8 44 75 37 81 -3 3 -17 -11
-31 -32z"/>
<path d="M6683 10014 c-14 -30 -5 -39 19 -17 21 19 23 29 5 36 -7 2 -18 -6
-24 -19z"/>
<path d="M6741 9990 c-14 -33 -8 -51 10 -33 6 6 9 23 7 37 l-3 27 -14 -31z"/>
<path d="M6438 9930 c-30 -41 -18 -154 12 -124 6 6 10 39 8 80 -3 69 -3 69
-20 44z"/>
<path d="M6536 9903 c-8 -39 -26 -167 -23 -169 1 -1 20 1 42 5 l40 6 3 58 c2
46 0 57 -13 57 -8 0 -15 9 -15 19 0 26 -10 51 -20 51 -5 0 -11 -12 -14 -27z"/>
<path d="M5857 9760 c6 -24 62 -76 91 -85 l23 -7 -20 40 c-23 45 -29 50 -70
62 -25 7 -28 5 -24 -10z"/>
<path d="M5976 9761 c10 -39 45 -91 60 -91 8 0 14 5 14 11 0 6 7 8 16 5 12 -4
15 0 12 17 -2 17 -10 22 -31 22 -18 0 -36 10 -53 30 -23 28 -24 28 -18 6z"/>
<path d="M6423 9764 c-7 -18 7 -46 25 -52 7 -2 12 5 12 16 0 46 -24 69 -37 36z"/>
<path d="M6345 9720 c-21 -22 -26 -33 -18 -41 8 -8 17 -2 34 20 12 17 29 31
36 31 7 0 13 5 13 10 0 20 -37 9 -65 -20z"/>
<path d="M6594 9719 c-16 -18 -16 -19 8 -19 14 0 28 6 31 14 9 23 -19 27 -39
5z"/>
<path d="M6817 9588 c-7 -49 -3 -56 18 -38 19 16 20 54 1 69 -11 9 -14 3 -19
-31z"/>
<path d="M5960 9535 c0 -15 107 -204 129 -228 22 -24 118 -64 129 -53 8 8 -19
45 -48 66 -17 12 -46 45 -64 73 -56 86 -146 173 -146 142z"/>
<path d="M6772 9373 c-12 -17 -22 -36 -22 -41 0 -6 -25 -29 -57 -51 -53 -39
-55 -41 -27 -41 46 0 93 35 115 86 27 61 22 90 -9 47z"/>
<path d="M5757 9286 c-25 -53 -56 -110 -70 -128 -22 -30 -42 -98 -28 -98 12 0
134 183 147 219 16 43 18 88 5 96 -5 3 -30 -37 -54 -89z"/>
<path d="M5984 9358 c-3 -12 -7 -61 -7 -110 0 -81 2 -91 30 -137 17 -27 34
-59 38 -70 11 -35 28 -25 21 12 -4 17 -9 55 -12 82 -3 28 -12 66 -19 85 -7 19
-16 61 -19 92 -8 63 -21 81 -32 46z"/>
<path d="M5628 9216 c-16 -19 -28 -42 -28 -50 0 -8 -4 -18 -10 -21 -5 -3 -10
-23 -10 -43 0 -20 -7 -50 -15 -66 -17 -32 -19 -46 -6 -46 5 0 31 55 57 123 27
67 51 125 52 130 9 20 -16 3 -40 -27z"/>
<path d="M6075 9217 c13 -66 36 -125 56 -143 20 -18 90 -46 97 -39 2 2 -18 28
-45 57 -28 29 -58 74 -69 100 -23 58 -49 75 -39 25z"/>
<path d="M5498 9040 c-36 -110 -38 -130 -6 -86 39 54 76 196 50 196 -4 0 -24
-49 -44 -110z"/>
<path d="M5995 8985 c9 -158 16 -205 30 -205 9 0 15 23 20 74 8 79 -9 162 -40
201 -14 19 -15 13 -10 -70z"/>
<path d="M5402 8977 c-23 -36 -44 -77 -48 -91 -8 -34 -24 -44 -24 -15 0 18 -2
20 -16 9 -8 -8 -20 -23 -26 -34 -14 -26 -39 -119 -33 -124 2 -3 17 22 32 54
35 74 33 71 43 55 6 -11 14 -8 35 15 46 49 98 162 86 183 -6 8 -22 -9 -49 -52z"/>
<path d="M5910 8973 c-6 -21 -15 -85 -20 -143 -9 -109 -11 -194 -3 -152 2 12
11 22 19 22 9 0 14 11 14 33 0 19 7 56 15 83 19 64 20 168 1 183 -12 10 -17 6
-26 -26z"/>
<path d="M6247 8960 c20 -35 33 -39 33 -10 0 10 -9 24 -19 30 -31 16 -33 12
-14 -20z"/>
<path d="M6180 8880 c0 -33 3 -40 20 -40 23 0 25 17 8 55 -17 37 -28 31 -28
-15z"/>
<path d="M6130 8835 c0 -30 4 -55 9 -55 16 0 23 20 12 34 -6 7 -8 27 -5 45 4
20 3 31 -5 31 -7 0 -11 -21 -11 -55z"/>
<path d="M5834 8824 c-42 -95 -54 -130 -73 -199 -20 -72 -20 -82 -1 -70 33 20
105 233 98 291 -3 26 -4 25 -24 -22z"/>
<path d="M5750 8768 c0 -7 -10 -29 -23 -48 -13 -19 -36 -73 -51 -120 -16 -46
-35 -95 -43 -107 -9 -13 -11 -23 -6 -23 23 0 64 63 95 150 44 118 51 147 38
155 -5 3 -10 0 -10 -7z"/>
<path d="M5571 8548 c-20 -39 -31 -75 -31 -101 l0 -41 25 34 c14 19 28 52 32
72 3 21 10 41 14 44 5 3 9 14 9 24 0 39 -18 27 -49 -32z"/>
<path d="M5475 8468 c-36 -75 -49 -94 -53 -75 -2 9 -7 17 -11 17 -18 0 -121
-130 -121 -153 0 -13 61 26 85 54 17 21 25 25 25 15 0 -53 67 38 98 131 14 44
-3 52 -23 11z"/>
<path d="M11238 13988 c-20 -77 -89 -179 -176 -260 -28 -27 -48 -48 -44 -48
10 0 81 48 122 83 73 62 128 183 118 262 -2 24 -6 18 -20 -37z"/>
<path d="M1661 13999 c-1 -46 6 -70 34 -127 37 -73 86 -123 170 -172 37 -21
35 -17 -30 51 -97 101 -135 159 -155 238 l-18 66 -1 -56z"/>
<path d="M2110 12138 c102 -50 175 -60 246 -33 58 22 46 40 -17 26 -70 -17
-131 -13 -205 13 -112 39 -113 38 -24 -6z"/>
<path d="M2040 12110 c0 -6 7 -10 15 -10 8 0 15 2 15 4 0 2 -7 6 -15 10 -8 3
-15 1 -15 -4z"/>
<path d="M2540 11949 c-64 -24 -143 -27 -218 -10 -76 17 -85 9 -18 -17 43 -16
79 -22 142 -22 90 0 137 13 168 49 19 21 19 21 0 20 -10 0 -44 -9 -74 -20z"/>
<path d="M2586 13062 c-3 -5 1 -15 9 -22 16 -14 20 -3 6 19 -5 8 -11 9 -15 3z"/>
<path d="M2712 13040 c12 -16 25 -30 30 -30 16 0 131 -166 163 -235 46 -99 80
-215 95 -325 7 -52 17 -99 21 -104 14 -16 10 100 -6 201 -34 209 -117 363
-259 481 -60 49 -75 54 -44 12z"/>
<path d="M2660 13011 c0 -5 5 -13 10 -16 6 -3 10 -2 10 4 0 5 -4 13 -10 16 -5
3 -10 2 -10 -4z"/>
<path d="M2355 12991 l-30 -7 34 -7 c18 -4 54 -7 80 -7 25 0 63 -5 84 -11 52
-14 59 -3 11 17 -44 19 -134 26 -179 15z"/>
<path d="M3005 12279 c-4 -11 -4 -23 0 -27 7 -7 25 17 25 36 0 20 -18 14 -25
-9z"/>
<path d="M2997 12206 c-4 -10 -7 -25 -6 -34 0 -11 4 -9 10 7 5 13 8 29 6 35
-2 5 -6 2 -10 -8z"/>
<path d="M2972 12110 c0 -14 2 -19 5 -12 2 6 2 18 0 25 -3 6 -5 1 -5 -13z"/>
<path d="M10163 13030 c-104 -80 -196 -218 -247 -370 -31 -93 -49 -248 -35
-290 16 -45 25 -29 33 53 7 84 44 227 80 316 32 80 99 180 176 264 34 37 58
67 53 67 -4 0 -32 -18 -60 -40z"/>
<path d="M10305 13050 c-15 -17 -16 -20 -3 -20 19 0 42 26 30 34 -5 3 -17 -3
-27 -14z"/>
<path d="M10235 13009 c-4 -6 -5 -13 -2 -16 7 -7 27 6 27 18 0 12 -17 12 -25
-2z"/>
<path d="M10406 12985 c-46 -16 -76 -42 -36 -31 14 4 68 12 120 16 114 11 113
10 75 20 -48 12 -117 10 -159 -5z"/>
<path d="M9890 12285 c0 -8 5 -15 10 -15 6 0 10 7 10 15 0 8 -4 15 -10 15 -5
0 -10 -7 -10 -15z"/>
<path d="M9930 12118 c0 -16 5 -28 10 -28 13 0 13 20 0 40 -8 12 -10 9 -10
-12z"/>
<path d="M10785 12145 c-74 -25 -132 -30 -205 -15 -60 11 -75 -5 -25 -26 62
-26 154 -15 245 29 87 41 83 44 -15 12z"/>
<path d="M10845 12100 c-3 -6 1 -7 9 -4 18 7 21 14 7 14 -6 0 -13 -4 -16 -10z"/>
<path d="M10299 11946 c32 -34 77 -46 178 -46 61 0 93 5 130 21 56 25 46 35
-18 18 -80 -20 -103 -20 -179 1 -41 12 -88 24 -105 27 l-30 6 24 -27z"/>
<path d="M2907 10780 c5 -25 8 -112 7 -195 0 -129 -4 -164 -27 -245 -14 -53
-37 -122 -51 -154 -26 -58 -28 -74 -7 -62 13 8 84 192 109 282 43 153 36 283
-19 384 l-20 35 8 -45z"/>
<path d="M9980 10743 c-28 -76 -36 -174 -20 -259 16 -87 128 -399 130 -361 0
4 -16 53 -35 108 -58 166 -82 398 -54 518 14 64 4 61 -21 -6z"/>
<path d="M1553 10354 c31 -61 40 -123 28 -194 -5 -30 -6 -59 -3 -64 11 -19 21
32 21 120 1 76 -3 98 -22 134 -32 61 -55 65 -24 4z"/>
<path d="M1986 10230 c-15 -29 -50 -79 -77 -112 -80 -96 -88 -132 -15 -68 35
31 130 202 124 222 -2 6 -17 -13 -32 -42z"/>
<path d="M1847 10188 c-73 -75 -158 -277 -196 -463 -57 -275 -20 -487 105
-605 29 -27 58 -50 65 -50 6 0 -8 18 -31 41 -88 86 -136 248 -126 427 14 249
96 501 207 634 51 61 32 75 -24 16z"/>
<path d="M1982 10128 c-6 -13 -21 -39 -33 -58 l-21 -35 21 25 c26 30 54 80 48
86 -2 2 -9 -6 -15 -18z"/>
<path d="M1860 9036 c0 -2 8 -10 18 -17 15 -13 16 -12 3 4 -13 16 -21 21 -21
13z"/>
<path d="M11352 10373 c-30 -45 -42 -91 -41 -167 1 -116 16 -124 20 -11 4 82
9 109 30 153 28 56 23 70 -9 25z"/>
<path d="M10900 10266 c0 -30 92 -196 124 -223 51 -43 41 -7 -22 80 -32 45
-69 100 -80 122 -14 26 -21 33 -22 21z"/>
<path d="M11010 10221 c0 -5 7 -14 16 -22 60 -49 142 -225 185 -396 30 -117
33 -142 33 -283 1 -135 -2 -165 -23 -230 -30 -96 -44 -122 -93 -176 -55 -59
-29 -56 31 4 91 91 125 197 124 392 0 191 -59 422 -149 587 -46 85 -124 163
-124 124z"/>
<path d="M10880 10206 c0 -17 63 -125 87 -148 19 -17 14 -4 -19 47 -24 39 -50
79 -56 90 -6 11 -12 16 -12 11z"/>
<path d="M11030 9025 c-7 -8 -8 -15 -2 -15 5 0 15 7 22 15 7 8 8 15 2 15 -5 0
-15 -7 -22 -15z"/>
<path d="M11470 8190 c-38 -20 -153 -50 -405 -105 -252 -54 -357 -97 -456
-184 -82 -72 -135 -199 -145 -347 -7 -94 -7 -95 -50 -141 -24 -26 -46 -44 -50
-41 -3 3 -1 49 5 102 16 138 14 205 -7 246 -30 61 -90 53 -183 -25 -151 -128
-376 -231 -772 -353 -373 -115 -363 -105 -359 -379 2 -106 0 -193 -5 -193 -4
0 -100 -20 -213 -44 -1109 -237 -2477 -297 -3690 -160 -181 20 -631 88 -794
120 -228 44 -450 103 -464 122 -23 30 -26 65 -14 162 7 52 12 112 12 133 0 95
-67 163 -200 204 -142 43 -371 144 -651 286 -368 186 -422 204 -470 155 -20
-22 -21 -29 -15 -170 4 -82 3 -148 -1 -148 -14 0 -79 72 -96 105 -8 17 -27 73
-42 125 -39 137 -67 191 -134 252 -46 43 -78 62 -156 92 -126 48 -281 87 -479
121 -87 15 -206 38 -264 51 -58 13 -108 22 -110 19 -18 -18 144 -195 302 -332
32 -27 56 -55 53 -60 -4 -6 -39 -30 -79 -54 -40 -24 -102 -65 -138 -92 -64
-48 -150 -141 -150 -163 0 -8 25 -5 78 8 191 46 453 31 634 -36 119 -45 189
-89 263 -167 77 -82 102 -148 115 -305 5 -60 16 -128 24 -152 66 -186 348
-362 492 -307 74 28 104 84 104 193 0 28 1 52 3 52 1 0 43 -16 92 -34 l90 -35
6 -148 c5 -134 8 -153 32 -199 47 -93 168 -176 357 -247 102 -38 474 -143 630
-177 413 -92 936 -164 1540 -212 247 -20 354 -23 795 -23 661 1 1059 25 1651
100 340 43 777 123 929 169 44 14 130 39 190 56 138 39 315 124 381 183 27 25
62 67 76 94 27 49 58 176 58 236 0 19 3 56 7 82 7 52 13 57 121 88 l52 16 -1
-58 c-2 -67 9 -91 53 -123 29 -20 45 -23 118 -23 127 1 223 49 300 151 55 73
76 133 95 266 27 190 60 265 161 364 112 112 260 182 470 223 93 19 138 22
268 19 86 -2 156 0 156 4 0 4 -31 38 -68 75 -75 75 -160 125 -266 158 l-69 21
29 19 c125 80 263 248 298 363 9 27 2 27 -44 2z m-55 -98 c-8 -28 -179 -189
-259 -247 -36 -26 -66 -48 -66 -50 0 -1 37 -15 83 -30 150 -50 277 -117 277
-147 0 -4 -19 -8 -42 -8 -64 0 -274 -27 -348 -45 -180 -43 -316 -123 -455
-264 -27 -28 -53 -51 -58 -51 -9 0 -4 29 10 66 5 13 3 16 -10 11 -25 -10 -21
-1 24 48 46 50 44 56 -8 24 -19 -12 -36 -19 -39 -17 -2 3 14 26 37 52 46 52
45 72 -1 38 -42 -32 -44 -13 -5 46 41 60 43 67 14 52 -36 -20 -34 -1 4 38 20
21 37 41 37 45 0 3 -14 4 -32 0 l-31 -6 27 36 c21 27 24 37 13 37 -8 0 -20 -7
-27 -15 -24 -29 -21 -7 5 45 57 112 182 197 355 240 47 12 177 45 290 74 113
29 207 52 208 50 2 -1 1 -11 -3 -22z m-9800 -22 c346 -54 641 -170 697 -274 9
-16 8 -18 -8 -12 -13 5 -8 -4 14 -26 41 -43 44 -72 6 -57 -39 14 -41 4 -5 -26
36 -31 44 -63 10 -45 -34 19 -34 3 0 -35 46 -53 42 -88 -6 -43 -34 32 -29 1 7
-42 38 -43 41 -74 5 -40 -14 13 -25 19 -25 13 0 -5 11 -20 25 -33 25 -24 33
-50 16 -50 -6 0 -13 5 -16 10 -3 6 -11 10 -16 10 -6 0 -1 -16 12 -36 l22 -36
-21 7 c-26 8 -26 8 -6 -41 16 -37 15 -37 -57 29 -185 172 -398 247 -701 247
-71 0 -128 4 -128 8 0 28 139 116 241 153 35 12 66 24 68 26 8 6 -53 64 -155
149 -55 45 -118 104 -139 129 l-37 46 33 -5 c19 -4 93 -15 164 -26z m1131
-390 c33 -15 87 -44 119 -65 112 -71 415 -207 725 -325 69 -26 144 -58 168
-70 103 -54 72 -120 -55 -120 -85 0 -169 23 -294 80 -92 42 -121 51 -171 52
-45 1 -66 -4 -86 -19 -52 -39 -65 -100 -37 -178 16 -44 42 -252 33 -261 -8 -7
-88 17 -157 47 l-53 24 6 60 c4 33 9 123 12 200 9 217 -8 249 -211 399 -143
107 -189 177 -132 204 27 13 55 7 133 -28z m7582 -31 c-6 -61 -31 -91 -133
-156 -115 -74 -156 -113 -189 -178 l-29 -58 7 -221 c6 -175 4 -225 -6 -238 -8
-10 -44 -23 -88 -33 -93 -19 -90 -19 -90 5 0 11 5 20 12 20 8 0 9 30 4 110
-11 186 -34 258 -88 281 -38 15 -83 6 -209 -46 -170 -71 -322 -84 -376 -33
-71 67 38 138 321 209 138 35 381 121 474 168 92 46 189 107 260 163 105 82
137 84 130 7z m-7546 -259 c43 -41 78 -81 78 -88 0 -7 -11 -17 -25 -22 -45
-17 -235 77 -235 116 0 13 6 12 35 -6 19 -12 40 -20 47 -18 6 2 -5 14 -25 26
-21 12 -37 28 -37 37 0 14 3 14 30 0 17 -9 30 -12 30 -7 0 4 -13 21 -30 37
-16 16 -30 33 -30 38 0 19 87 -42 162 -113z m7528 95 c0 -8 -17 -24 -37 -35
l-38 -21 33 5 c24 4 32 2 32 -9 0 -8 -15 -21 -32 -29 l-33 -14 33 -1 c26 -1
33 -5 30 -18 -2 -10 -14 -23 -28 -30 -25 -12 -25 -13 -2 -13 32 0 27 -14 -15
-43 -52 -35 -81 -45 -144 -48 l-54 -3 2 34 c2 52 51 109 148 177 98 67 105 70
105 48z m-7714 -183 c107 -53 174 -74 244 -75 87 -2 90 -42 5 -64 l-30 -7 33
-6 c48 -8 44 -23 -10 -39 -27 -8 -48 -18 -48 -22 0 -4 15 -3 32 2 45 13 70 11
66 -3 -3 -7 -24 -18 -48 -24 -32 -8 -39 -12 -26 -17 10 -4 29 -7 42 -7 33 0
31 -28 -3 -36 -45 -10 -50 -12 -21 -13 67 -2 77 -26 16 -39 l-43 -10 38 -1
c30 -1 37 -5 37 -21 0 -14 -7 -20 -22 -20 -13 0 -30 -5 -38 -10 -12 -7 -8 -10
15 -10 55 -1 61 -16 14 -33 -28 -10 -36 -16 -22 -16 51 -2 75 -31 26 -31 -50
0 -60 -17 -14 -25 55 -9 55 -33 -1 -38 -41 -3 -41 -4 10 -5 28 -1 52 -6 52
-11 0 -20 -31 -33 -65 -28 -21 3 -33 2 -30 -4 4 -5 18 -9 33 -9 15 0 33 -4 41
-9 11 -7 10 -11 -7 -20 -11 -6 -31 -11 -44 -12 -16 -1 -12 -4 15 -11 64 -17
43 -31 -40 -26 -152 9 -290 103 -354 241 -33 71 -33 73 -37 245 -3 95 -1 211
3 258 l7 85 48 -45 c26 -24 83 -62 126 -84z m7887 -207 c2 -176 0 -195 -21
-258 -31 -88 -77 -154 -136 -194 -83 -57 -233 -91 -276 -63 -11 7 -3 10 30 11
l45 1 -54 12 c-64 13 -81 36 -28 36 60 0 79 14 27 20 -32 4 -46 10 -48 23 -3
14 5 17 50 18 l53 1 -40 12 c-23 6 -41 19 -43 28 -3 14 3 16 32 11 46 -7 46 3
1 21 -50 21 -44 36 16 36 31 0 48 4 44 10 -3 6 -27 10 -51 10 -54 0 -55 17 -3
36 l34 12 -30 3 c-33 4 -50 39 -19 39 16 0 16 1 1 18 -23 25 -13 32 47 33 l51
2 -52 6 c-58 7 -68 13 -60 35 4 9 23 16 54 19 l48 3 -52 2 c-86 3 -82 42 5 42
23 0 42 5 42 10 0 6 -18 10 -39 10 -22 0 -46 3 -55 6 -32 12 -15 24 37 24 l52
1 -49 17 c-73 25 -68 37 16 40 96 3 169 38 273 131 l80 72 8 -53 c5 -29 9
-138 10 -243z m-7078 26 c155 -66 311 -92 398 -68 38 10 26 -10 -17 -29 l-31
-13 28 -1 c42 0 32 -16 -15 -26 l-43 -8 43 -4 c54 -4 60 -32 7 -32 -47 0 -45
-20 3 -21 l37 -2 -34 -6 c-48 -8 -49 -27 -4 -39 l38 -10 -32 -1 c-22 -1 -33
-6 -33 -16 0 -8 -3 -15 -6 -15 -3 0 -88 27 -187 61 -275 91 -377 149 -377 213
0 17 4 36 8 42 21 33 99 24 217 -25z m6305 -11 c46 -86 -170 -222 -470 -295
-58 -14 -108 -25 -112 -25 -17 0 -7 19 14 26 20 6 21 7 4 20 -23 16 -12 34 22
35 24 1 23 3 -10 12 -47 13 -48 25 -6 34 l32 6 -34 13 -35 12 50 2 c43 1 47 3
31 13 -64 41 -80 53 -84 65 -3 11 0 12 16 3 34 -18 155 -25 213 -11 80 18 175
49 243 81 73 34 111 37 126 9z m-6225 -253 c377 -139 732 -224 1250 -301 307
-45 817 -91 1290 -117 531 -28 1344 12 2035 102 314 40 916 147 1120 199 225
56 450 143 523 201 28 23 37 26 37 14 0 -21 -28 -75 -39 -75 -5 0 -11 -7 -14
-15 -5 -11 -2 -12 17 -3 16 7 30 7 42 0 15 -9 12 -12 -24 -31 -54 -28 -61 -41
-17 -34 45 7 45 -7 0 -31 -44 -24 -45 -37 -2 -30 l32 6 -40 -35 c-41 -36 -44
-58 -5 -37 12 6 28 9 37 6 11 -5 8 -11 -14 -29 -15 -13 -37 -29 -48 -35 -16
-9 -10 -10 30 -5 l50 6 -38 -41 c-20 -23 -37 -44 -37 -46 0 -3 15 0 32 5 18 5
35 9 37 9 3 0 -10 -16 -29 -35 -31 -32 -32 -35 -13 -35 36 0 36 -19 3 -50 -30
-28 -30 -30 -10 -30 31 0 22 -30 -17 -55 -36 -22 -41 -35 -15 -35 33 -1 -70
-81 -163 -124 -151 -72 -290 -114 -571 -172 -668 -137 -1206 -200 -1914 -225
-543 -19 -1290 6 -1710 56 -454 55 -594 77 -1025 161 -255 50 -606 146 -790
216 -79 31 -200 103 -226 135 -13 15 -11 16 19 10 17 -4 32 -5 32 -2 0 2 -20
16 -45 31 -55 32 -58 47 -7 38 l37 -6 -42 44 c-49 50 -53 63 -18 54 35 -9 31
8 -7 35 -33 24 -24 38 13 19 39 -21 44 5 5 28 -39 23 -53 62 -15 42 32 -18 35
-3 6 28 -35 37 -34 46 6 38 l32 -6 -27 23 c-33 27 -37 51 -8 42 28 -9 25 11
-5 31 -35 23 -32 38 7 30 l32 -6 -33 32 c-34 33 -29 48 10 27 l22 -11 -21 29
c-12 16 -28 36 -37 43 -8 7 -15 19 -15 26 0 10 19 5 68 -20 37 -18 135 -58
217 -89z"/>
<path d="M10885 7892 c-42 -12 -61 -22 -63 -36 -3 -15 1 -17 26 -12 l29 7 -5
-53 c-5 -60 -12 -71 -63 -92 -36 -15 -37 -15 -43 9 -4 14 -13 25 -21 25 -12 0
-15 -16 -15 -76 0 -65 2 -75 16 -70 9 3 18 6 20 6 2 0 4 10 4 23 0 17 11 28
45 45 l45 22 0 -55 c0 -44 -4 -56 -20 -65 -11 -6 -20 -17 -20 -24 0 -10 14 -8
58 10 31 13 63 24 70 24 6 0 12 7 12 16 0 11 -6 15 -20 11 -18 -5 -20 0 -20
44 0 53 5 57 75 75 21 5 25 2 25 -15 0 -12 6 -21 15 -21 12 0 15 16 15 81 0
60 -3 80 -12 77 -7 -3 -14 -21 -16 -40 -3 -30 -8 -37 -30 -42 -15 -3 -37 -8
-49 -12 -22 -6 -23 -4 -23 56 0 53 3 63 20 67 11 3 20 12 20 19 0 17 1 17 -75
-4z"/>
<path d="M1920 7910 c0 -11 8 -15 50 -24 24 -5 25 -8 20 -63 -5 -57 -5 -58
-35 -55 -68 7 -94 21 -97 55 -2 19 -9 33 -19 35 -13 2 -14 -7 -6 -75 8 -77 27
-124 27 -70 0 31 9 33 76 16 l44 -11 0 -50 0 -50 -30 7 c-23 5 -30 3 -30 -9 0
-10 16 -19 43 -26 23 -6 55 -15 71 -20 37 -13 36 -13 36 5 0 8 -9 19 -20 25
-20 11 -25 36 -14 77 l6 22 44 -22 c33 -16 44 -27 44 -44 0 -13 9 -27 22 -34
20 -11 21 -10 15 36 -4 26 -7 65 -7 86 0 28 -4 39 -15 39 -8 0 -15 -9 -15 -20
0 -23 -1 -24 -51 -8 l-39 11 0 60 c0 57 1 59 24 53 16 -4 26 -1 30 9 4 10 -6
17 -37 25 -23 6 -58 15 -77 21 -45 12 -60 11 -60 -1z"/>
<path d="M2984 7471 c8 -13 70 -42 141 -67 l40 -14 -30 25 c-16 14 -52 32 -80
41 -27 9 -56 19 -64 22 -10 4 -12 1 -7 -7z"/>
<path d="M3050 7385 c73 -38 110 -46 70 -15 -25 19 -103 50 -124 50 -6 -1 18
-16 54 -35z"/>
<path d="M3033 7340 c32 -17 66 -30 75 -28 22 5 -50 43 -98 52 -31 6 -28 3 23
-24z"/>
<path d="M3040 7295 c19 -14 41 -25 49 -25 25 1 -36 50 -62 50 -18 0 -16 -3
13 -25z"/>
<path d="M3006 7251 c5 -5 23 -13 39 -17 27 -7 29 -6 16 9 -7 10 -25 17 -39
17 -16 0 -22 -4 -16 -9z"/>
<path d="M3566 7246 c12 -9 57 -29 100 -46 l79 -29 -32 29 c-30 27 -56 37
-138 56 -29 6 -30 6 -9 -10z"/>
<path d="M3659 7154 c68 -31 77 -30 26 1 -22 14 -49 25 -60 24 -12 0 3 -11 34
-25z"/>
<path d="M3028 6940 c35 -22 52 -25 52 -11 0 5 -14 14 -31 20 -49 17 -57 13
-21 -9z"/>
<path d="M3002 6909 c25 -14 98 -39 98 -33 0 6 -89 44 -103 44 -7 0 -4 -5 5
-11z"/>
<path d="M2960 6883 c0 -11 125 -63 147 -62 10 0 -13 16 -52 35 -69 34 -95 41
-95 27z"/>
<path d="M9890 7425 c-25 -14 -55 -31 -67 -37 -13 -6 -23 -18 -23 -25 0 -17
62 15 113 59 40 34 34 35 -23 3z"/>
<path d="M9861 7359 c-66 -30 -78 -50 -19 -30 42 14 118 60 98 60 -8 0 -44
-13 -79 -30z"/>
<path d="M9871 7295 c-58 -27 -64 -44 -9 -26 34 12 90 50 73 51 -5 0 -34 -11
-64 -25z"/>
<path d="M9861 7244 c-19 -8 -32 -16 -29 -19 6 -7 76 14 83 25 9 14 -15 12
-54 -6z"/>
<path d="M9295 7209 c-56 -18 -106 -48 -60 -36 11 3 42 8 68 12 27 3 67 15 90
25 l42 19 -40 -1 c-22 0 -67 -9 -100 -19z"/>
<path d="M9863 7188 c-18 -6 -33 -15 -33 -21 0 -5 7 -6 16 -3 9 3 27 9 40 12
13 3 24 10 24 15 0 11 -5 10 -47 -3z"/>
<path d="M9365 7183 c-62 -14 -116 -36 -108 -44 9 -9 173 35 173 46 0 6 -37 5
-65 -2z"/>
<path d="M9880 6950 c0 -13 20 -13 40 0 12 8 9 10 -12 10 -16 0 -28 -4 -28
-10z"/>
<path d="M9873 6910 c-13 -5 -23 -12 -23 -15 0 -11 47 -4 66 10 19 14 19 14
-1 14 -11 0 -30 -4 -42 -9z"/>
<path d="M9880 6865 c-32 -12 -33 -14 -9 -14 14 -1 34 6 45 14 23 18 10 18
-36 0z"/>
<path d="M9888 6813 c7 -3 16 -2 19 1 4 3 -2 6 -13 5 -11 0 -14 -3 -6 -6z"/>
<path d="M9838 6803 c6 -2 18 -2 25 0 6 3 1 5 -13 5 -14 0 -19 -2 -12 -5z"/>
<path d="M10113 6913 c9 -2 25 -2 35 0 9 3 1 5 -18 5 -19 0 -27 -2 -17 -5z"/>
<path d="M3320 6741 c0 -5 10 -11 23 -13 22 -3 22 -6 27 -165 l5 -162 33 -34
c41 -42 132 -75 165 -60 31 14 47 83 47 201 0 86 2 99 20 112 32 23 23 38 -30
49 -28 6 -55 11 -60 11 -20 0 -9 -21 16 -32 l25 -12 -3 -133 c-2 -107 -6 -135
-20 -149 -22 -22 -62 -12 -100 26 l-29 29 3 138 c3 136 3 138 26 141 38 6 20
23 -43 43 -66 21 -105 24 -105 10z"/>
<path d="M9351 6623 c-12 -49 -25 -118 -30 -155 -10 -71 -52 -178 -70 -178 -6
0 -11 -7 -11 -15 0 -18 25 -19 85 -3 32 9 45 17 45 30 0 13 -8 18 -25 18 -27
0 -48 31 -27 38 7 2 12 14 12 27 0 18 7 23 38 28 20 3 47 9 59 12 17 6 25 1
38 -26 17 -32 17 -33 -5 -51 -36 -29 -17 -32 59 -9 46 14 71 27 71 36 0 8 -6
15 -12 15 -12 0 -38 50 -125 237 -30 66 -42 83 -59 83 -19 0 -25 -11 -43 -87z
m55 -88 c13 -31 24 -59 24 -63 0 -7 -72 -33 -78 -28 -3 4 21 146 26 146 2 0
14 -25 28 -55z"/>
<path d="M9174 6633 c-7 -12 -25 -17 -66 -17 -46 -1 -64 -7 -99 -31 -61 -43
-81 -83 -87 -170 -6 -93 16 -165 60 -197 82 -58 218 10 235 119 8 49 -16 40
-34 -13 -17 -51 -55 -84 -96 -84 -44 0 -52 8 -71 63 -18 55 -21 144 -5 202 12
45 54 95 80 95 27 0 77 -47 91 -85 6 -19 16 -35 20 -35 9 0 10 79 2 133 -7 41
-14 45 -30 20z"/>
<path d="M3680 6626 c0 -7 7 -19 15 -26 12 -10 15 -41 15 -156 l0 -144 -25
-12 c-35 -16 -27 -31 21 -40 21 -4 49 -10 62 -13 15 -4 22 -1 22 10 0 8 -5 15
-11 15 -29 0 -38 36 -39 150 l0 115 41 -65 c23 -35 64 -111 92 -167 36 -73 57
-103 69 -103 17 0 18 14 18 161 0 152 1 161 20 166 38 10 24 40 -24 52 -25 6
-52 11 -60 11 -25 0 -19 -19 9 -30 24 -9 25 -12 25 -110 0 -55 -2 -100 -6
-100 -3 0 -19 30 -36 68 -51 109 -122 208 -159 221 -41 14 -49 14 -49 -3z"/>
<path d="M4020 6537 c0 -9 9 -19 20 -22 19 -6 20 -15 20 -172 0 -143 -2 -164
-15 -159 -8 3 -15 1 -15 -4 0 -10 120 -50 151 -50 27 0 24 18 -3 22 -30 4 -37
44 -37 212 -1 124 0 128 19 123 12 -3 20 0 20 7 0 8 -29 21 -67 31 -38 10 -74
20 -80 23 -7 2 -13 -3 -13 -11z"/>
<path d="M8820 6536 c-48 -13 -70 -46 -31 -46 17 0 21 -6 21 -32 0 -18 5 -69
12 -114 14 -101 1 -157 -43 -180 -40 -20 -62 -17 -90 12 -23 24 -24 34 -27
160 -3 115 -1 135 12 140 9 3 16 12 16 19 0 9 -11 9 -52 -1 -29 -8 -65 -14
-80 -14 -18 0 -28 -5 -28 -15 0 -9 9 -15 24 -15 24 0 24 -1 31 -140 9 -173 20
-201 84 -213 51 -10 81 2 138 56 50 47 57 80 42 207 -12 108 -12 111 9 140 22
29 28 51 15 49 -5 -1 -28 -6 -53 -13z"/>
<path d="M4200 6492 c0 -11 7 -25 15 -32 8 -7 15 -17 15 -23 0 -6 25 -89 56
-183 50 -157 77 -209 89 -171 2 6 20 66 40 132 50 164 64 189 107 193 l35 3
12 -57 c6 -32 11 -106 11 -166 l0 -108 -25 0 c-38 0 -32 -28 8 -34 17 -3 75
-12 128 -21 139 -22 129 -26 129 55 0 81 -12 90 -39 26 -20 -44 -35 -56 -76
-56 -50 0 -55 7 -55 86 0 41 4 74 9 74 26 0 41 -15 47 -46 4 -20 12 -34 21
-34 9 0 12 7 9 18 -2 9 -8 50 -11 90 l-7 73 -17 -33 c-23 -48 -47 -48 -55 -1
-10 61 -7 103 7 109 38 14 110 -43 122 -97 11 -51 25 -31 25 35 l0 63 -57 11
c-32 6 -94 16 -138 22 -44 6 -96 15 -115 20 -89 21 -90 21 -90 5 0 -8 4 -15
10 -15 5 0 14 -9 20 -20 8 -15 5 -43 -14 -116 -13 -52 -26 -98 -29 -100 -6 -6
-57 131 -57 154 -1 9 -7 34 -15 56 -12 36 -12 39 6 43 37 10 20 30 -33 37 -28
4 -60 12 -70 17 -14 8 -18 6 -18 -9z"/>
<path d="M8356 6442 c-3 -5 -22 -69 -41 -142 -45 -165 -71 -236 -90 -244 -8
-3 -15 -12 -15 -20 0 -13 9 -14 48 -10 60 8 73 20 44 40 -26 18 -29 55 -4 76
9 8 38 18 64 21 45 6 47 5 57 -25 15 -42 14 -58 -4 -58 -8 0 -15 -6 -15 -14 0
-8 7 -13 18 -10 9 2 43 8 75 14 36 7 57 16 57 25 0 7 -7 15 -16 17 -16 3 -46
66 -114 238 -35 89 -51 112 -64 92z m24 -189 l19 -51 -41 -6 c-22 -4 -41 -5
-42 -4 -1 2 4 32 12 66 16 71 23 71 52 -5z"/>
<path d="M8148 6393 c-14 -13 -20 -14 -33 -3 -10 8 -31 11 -63 7 -39 -4 -53
-12 -83 -46 -85 -95 -91 -245 -15 -329 31 -33 38 -36 89 -36 48 -1 60 3 88 29
33 32 59 81 59 115 0 30 -17 24 -25 -9 -9 -44 -67 -101 -102 -101 -49 0 -61
18 -73 108 -19 143 14 242 81 242 32 0 74 -44 84 -90 9 -43 40 -42 31 1 -3 17
-6 53 -6 80 0 52 -6 59 -32 32z"/>
<path d="M4830 6377 c0 -8 8 -17 18 -19 26 -7 42 -95 42 -230 l0 -108 -26 0
c-16 0 -24 -5 -22 -12 4 -13 147 -31 158 -21 3 3 -5 12 -17 20 -20 14 -23 24
-23 90 l0 75 28 -7 c39 -9 42 -14 51 -95 6 -58 12 -77 30 -91 28 -23 50 -24
79 -3 22 15 32 74 12 74 -5 0 -10 -12 -10 -26 0 -43 -28 -11 -36 41 -4 27 -15
52 -30 66 -30 28 -30 37 -1 41 33 4 62 70 50 111 -13 47 -67 72 -181 87 -52 6
-101 14 -109 17 -7 3 -13 -1 -13 -10z m180 -42 c18 -9 32 -26 36 -43 3 -15 8
-33 10 -41 12 -37 -48 -76 -82 -53 -16 11 -26 126 -12 140 15 15 13 15 48 -3z"/>
<path d="M5211 6316 c-30 -32 -38 -94 -17 -135 21 -39 91 -91 123 -91 28 0 73
-41 73 -68 0 -55 -70 -75 -114 -33 -14 13 -34 45 -45 72 -32 73 -44 63 -36
-28 8 -86 12 -96 26 -70 9 15 13 15 37 3 39 -19 100 -27 126 -15 46 21 60 121
26 177 -22 36 -74 72 -106 72 -29 0 -74 44 -74 73 0 22 32 47 60 47 18 0 73
-55 86 -87 15 -34 50 -48 40 -15 -2 9 -8 37 -11 62 -9 56 -13 64 -30 50 -10
-8 -19 -8 -34 -1 -11 6 -39 11 -64 11 -33 0 -49 -6 -66 -24z"/>
<path d="M7493 6333 c-36 -5 -45 -28 -13 -36 19 -5 20 -14 20 -167 0 -153 -1
-162 -20 -167 -11 -3 -20 -11 -20 -17 0 -9 20 -10 78 -4 42 4 107 10 145 13
l67 7 0 74 c0 89 -19 101 -39 25 -14 -57 -43 -81 -95 -81 -46 0 -47 7 -44 190
3 142 4 145 26 148 12 2 22 8 22 13 0 9 -63 10 -127 2z"/>
<path d="M5450 6321 c0 -7 8 -15 18 -18 39 -15 42 -27 42 -187 l0 -156 -26 0
c-16 0 -24 -5 -22 -12 7 -20 158 -24 158 -5 0 8 -9 17 -20 20 -19 5 -20 14
-20 166 0 154 1 161 20 161 11 0 20 7 20 15 0 12 -14 15 -69 15 -38 0 -76 3
-85 6 -9 3 -16 1 -16 -5z"/>
<path d="M7305 6320 c-44 -4 -102 -10 -130 -14 l-49 -8 27 -16 27 -17 0 -157
0 -158 -25 0 c-17 0 -25 -6 -25 -17 0 -14 12 -15 107 -10 58 4 123 7 145 7
l38 0 0 75 c0 41 -4 75 -9 75 -5 0 -15 -19 -23 -42 -16 -49 -52 -79 -99 -81
l-34 -2 -3 78 c-3 70 -1 77 16 77 13 0 26 -13 36 -35 9 -19 21 -35 26 -35 6 0
10 40 10 90 0 53 -4 90 -10 90 -5 0 -18 -17 -27 -37 -10 -21 -26 -39 -36 -41
-15 -3 -17 6 -17 72 l0 76 29 0 c52 0 80 -17 97 -60 9 -22 20 -40 25 -40 5 0
9 32 9 70 0 50 -4 70 -12 69 -7 -1 -49 -5 -93 -9z"/>
<path d="M5640 6304 c0 -7 8 -18 18 -23 16 -9 20 -28 25 -123 4 -62 10 -132
13 -156 6 -38 4 -44 -15 -49 -11 -3 -21 -12 -21 -19 0 -11 22 -14 103 -14 170
0 202 32 195 197 -3 73 -6 85 -34 120 -36 44 -78 62 -154 63 -30 0 -72 4 -92
9 -30 7 -38 6 -38 -5z m204 -53 c29 -32 45 -92 45 -171 1 -102 -12 -124 -70
-128 l-46 -3 -6 68 c-4 37 -7 110 -7 161 l0 92 33 0 c21 0 41 -8 51 -19z"/>
<path d="M6105 6291 c-17 -28 -55 -145 -55 -170 0 -53 -39 -159 -66 -180 -36
-28 -22 -41 42 -41 39 0 54 4 54 14 0 7 -9 16 -21 19 -17 5 -20 12 -17 44 l3
38 57 3 c56 3 58 2 64 -25 4 -15 11 -34 17 -40 6 -9 4 -15 -7 -19 -9 -3 -16
-12 -16 -20 0 -11 16 -14 65 -14 62 0 80 9 52 27 -11 7 -33 65 -115 301 -23
66 -42 87 -57 63z m11 -163 c9 -29 19 -59 22 -65 3 -9 -7 -13 -32 -13 -29 0
-36 4 -36 20 0 19 22 110 26 110 1 0 10 -24 20 -52z"/>
<path d="M6890 6294 c-8 -1 -36 -6 -62 -9 -47 -6 -68 -25 -28 -25 19 0 20 -7
20 -165 0 -158 -1 -165 -20 -165 -11 0 -20 -7 -20 -15 0 -12 17 -15 94 -15 51
0 107 5 124 11 59 21 103 106 101 199 -2 129 -93 209 -209 184z m95 -50 c26
-28 45 -100 45 -167 0 -97 -37 -152 -97 -145 l-28 3 -3 155 c-1 85 0 160 2
167 9 22 55 15 81 -13z"/>
<path d="M6290 6270 c0 -5 8 -10 18 -10 28 0 42 -73 42 -215 0 -118 -1 -125
-20 -125 -11 0 -20 -7 -20 -15 0 -19 82 -20 177 -4 51 9 68 17 92 44 40 46 57
129 42 203 -22 112 -56 132 -221 132 -67 0 -110 -4 -110 -10z m222 -31 c21
-11 30 -65 31 -186 1 -111 -9 -126 -78 -121 l-40 3 -3 150 c-1 82 0 155 3 163
5 14 51 9 87 -9z"/>
<path d="M5900 7179 c-19 -11 -52 -19 -72 -19 -27 0 -38 -4 -38 -15 0 -10 11
-15 35 -15 l35 0 0 -150 0 -150 -35 0 c-24 0 -35 -5 -35 -15 0 -12 19 -15 115
-15 93 0 115 3 115 14 0 9 -12 16 -27 18 l-28 3 -3 183 c-3 199 -1 194 -62
161z"/>
<path d="M6175 7190 c-11 -5 -36 -22 -55 -39 -32 -27 -35 -35 -35 -81 0 -43 4
-55 24 -71 13 -11 22 -21 20 -22 -2 -2 -16 -11 -31 -20 -22 -14 -28 -25 -28
-53 0 -78 48 -114 153 -114 60 0 137 50 151 98 12 42 -17 108 -57 132 l-29 18
32 18 c38 23 48 56 25 90 -29 45 -117 68 -170 44z m92 -42 c27 -25 29 -55 5
-85 -16 -21 -20 -21 -52 -10 -53 19 -60 25 -60 62 0 55 63 75 107 33z m16
-227 c21 -17 22 -64 2 -81 -8 -6 -31 -14 -52 -17 -46 -6 -93 25 -93 62 0 34
20 73 39 78 18 4 77 -20 104 -42z"/>
<path d="M6503 7189 c-41 -12 -63 -44 -63 -90 0 -57 8 -69 46 -69 27 0 37 5
46 26 13 28 13 27 -39 61 -17 12 -17 13 2 28 32 25 61 28 89 10 21 -14 26 -25
26 -57 0 -48 -18 -83 -65 -128 -50 -47 -126 -150 -119 -161 3 -5 65 -9 139 -9
152 0 145 -4 145 91 0 66 -10 75 -31 27 -14 -33 -15 -33 -89 -36 l-75 -2 45
40 c25 22 49 40 54 40 22 0 74 52 91 90 19 42 19 43 0 78 -11 20 -33 43 -50
51 -38 18 -110 23 -152 10z"/>
<path d="M6800 7139 c0 -35 -3 -75 -7 -88 -5 -19 -2 -22 13 -19 12 2 21 16 27
41 l9 37 84 0 c46 0 84 -3 83 -7 -1 -10 -19 -39 -86 -138 -57 -82 -67 -129
-37 -159 41 -41 94 -5 94 64 0 54 33 167 71 242 16 32 29 59 29 62 0 2 -55 6
-122 8 -68 2 -131 8 -140 12 -16 7 -18 2 -18 -55z"/>
<path d="M9274 4716 c-23 -7 -78 -19 -123 -26 -102 -16 -105 -34 -12 -65 106
-35 105 -32 109 -321 2 -147 0 -244 -6 -244 -5 0 -30 9 -54 20 -68 30 -224 46
-295 31 -123 -27 -248 -109 -295 -194 -54 -96 -63 -135 -63 -262 0 -118 1
-121 36 -195 44 -90 100 -149 177 -187 52 -25 67 -28 162 -27 97 0 114 3 223
41 l117 42 0 -50 c0 -58 -6 -57 140 -29 145 27 150 29 150 44 0 10 -18 17 -56
22 -103 12 -94 -55 -94 729 l0 685 -37 -1 c-21 0 -57 -6 -79 -13z m-197 -662
c26 -9 67 -32 91 -51 75 -61 76 -65 80 -360 l4 -263 -44 -19 c-98 -42 -209
-52 -295 -26 -71 21 -152 89 -185 156 -49 97 -58 246 -22 360 53 168 213 256
371 203z"/>
<path d="M11285 4714 c-27 -7 -83 -19 -122 -25 -94 -15 -99 -36 -14 -61 114
-34 120 -51 116 -363 -3 -222 3 -208 -75 -180 -25 9 -86 22 -136 28 -77 9
-101 8 -160 -7 -222 -56 -348 -221 -347 -456 2 -196 118 -361 285 -400 93 -23
224 -2 376 59 29 11 55 21 57 21 3 0 5 -22 5 -50 0 -60 -6 -59 160 -27 86 17
116 26 118 38 2 13 -11 19 -59 28 -35 6 -66 14 -71 19 -5 5 -10 314 -13 688
-2 373 -4 685 -4 692 -1 16 -51 14 -116 -4z m-159 -672 c23 -12 56 -33 74 -49
58 -48 62 -71 68 -354 l5 -256 -45 -20 c-102 -48 -242 -54 -331 -15 -68 30
-140 106 -167 178 -56 147 -27 359 63 452 31 33 87 67 137 83 43 14 152 4 196
-19z"/>
<path d="M4180 4677 c-53 -27 -62 -98 -18 -144 16 -17 32 -23 62 -23 44 1 62
11 89 50 25 36 21 58 -17 96 -37 37 -72 43 -116 21z"/>
<path d="M8145 4679 c-52 -30 -63 -102 -20 -144 54 -55 165 -12 165 64 0 63
-89 112 -145 80z"/>
<path d="M2347 4663 c-21 -2 -37 -9 -35 -15 2 -6 38 -23 80 -38 93 -32 105
-42 117 -89 26 -99 41 -754 21 -896 -28 -197 -149 -300 -375 -319 -159 -14
-300 26 -377 105 -79 81 -80 84 -85 616 -3 254 -2 482 1 508 9 59 38 75 136
75 68 0 70 1 70 25 l0 25 -282 0 c-156 0 -289 -4 -297 -9 -8 -5 -11 -16 -8
-24 6 -17 51 -27 123 -27 45 0 55 -4 66 -22 10 -18 14 -134 15 -502 3 -524 7
-562 61 -641 40 -57 131 -127 207 -158 90 -37 189 -51 315 -44 259 15 419 127
471 328 19 76 26 334 17 634 -4 160 -6 307 -2 328 8 54 35 74 115 87 57 10 69
15 69 31 0 18 -9 19 -152 18 -84 0 -171 2 -193 4 -22 3 -57 2 -78 0z"/>
<path d="M4256 4205 c-24 -37 -117 -103 -170 -121 -58 -20 -59 -40 -3 -55 60
-16 84 -42 92 -101 4 -28 4 -165 0 -305 -6 -217 -10 -258 -24 -272 -9 -9 -51
-24 -94 -35 -62 -14 -77 -21 -75 -34 2 -11 12 -16 28 -15 81 6 354 5 403 -2
48 -6 57 -5 57 8 0 10 -19 22 -52 33 -29 9 -65 23 -80 31 l-28 14 0 439 c0
424 -1 440 -19 440 -10 0 -26 -11 -35 -25z"/>
<path d="M8177 4169 c-39 -39 -75 -64 -110 -77 -68 -26 -70 -50 -5 -69 79 -23
78 -19 78 -339 0 -174 -4 -293 -11 -312 -10 -28 -17 -32 -86 -48 -87 -21 -117
-38 -93 -54 8 -5 22 -7 31 -5 25 8 350 8 402 0 43 -7 49 -5 45 9 -2 11 -28 25
-72 40 -37 13 -72 29 -77 37 -5 8 -9 209 -9 447 0 496 7 470 -93 371z"/>
<path d="M6672 4155 c-35 -58 -89 -102 -167 -135 -68 -29 -62 -53 17 -71 49
-11 65 -19 75 -39 9 -18 13 -100 13 -298 l0 -272 -22 -9 c-13 -4 -45 -11 -73
-15 -72 -10 -85 -15 -85 -35 0 -15 21 -16 288 -13 158 2 293 5 301 8 10 3 11
8 2 18 -7 9 -55 18 -127 26 -87 9 -117 16 -123 29 -5 9 -10 122 -12 251 -4
232 -4 236 20 282 13 26 37 63 53 83 34 40 67 45 138 20 76 -27 130 -14 150
36 16 37 -2 91 -38 120 -72 57 -203 -19 -314 -181 -17 -25 -17 -24 -18 45 0
39 -3 100 -7 138 -8 85 -26 88 -71 12z"/>
<path d="M3116 4135 c-29 -48 -120 -120 -167 -130 -22 -5 -29 -12 -29 -30 0
-18 7 -24 34 -29 19 -4 45 -15 58 -26 25 -19 25 -20 31 -247 5 -207 0 -323
-15 -338 -3 -3 -36 -12 -74 -18 -50 -10 -70 -18 -72 -30 -3 -16 17 -17 237
-17 133 0 241 4 241 9 0 16 -24 27 -93 46 -55 14 -70 23 -78 42 -5 13 -9 147
-9 297 l0 274 54 41 c30 24 78 51 105 62 96 36 224 18 273 -37 44 -50 49 -82
50 -371 2 -311 7 -295 -79 -308 -68 -10 -94 -22 -87 -40 5 -13 38 -15 230 -15
214 0 224 1 224 19 0 20 -26 32 -97 46 -18 4 -36 12 -40 18 -5 7 -11 149 -14
317 -4 193 -10 319 -18 342 -15 47 -53 92 -105 126 -37 24 -50 27 -131 27
-105 -1 -176 -25 -290 -101 -38 -24 -70 -44 -71 -44 -2 0 -4 36 -4 80 0 72 -2
80 -19 80 -12 0 -29 -17 -45 -45z"/>
<path d="M7460 4156 c-160 -46 -235 -156 -196 -290 29 -99 55 -119 305 -232
104 -48 155 -104 166 -184 6 -45 4 -56 -18 -89 -53 -79 -160 -102 -255 -55
-63 31 -103 77 -145 167 -20 43 -37 67 -46 65 -8 -2 -14 -5 -14 -8 3 -102 17
-220 27 -235 15 -23 63 -39 162 -55 188 -31 347 49 389 195 16 53 16 60 -1
121 -29 109 -93 166 -274 244 -137 59 -180 100 -180 175 0 79 58 136 137 136
90 1 152 -38 209 -131 55 -90 68 -82 61 37 -4 61 -11 100 -19 105 -54 35 -235
55 -308 34z"/>
<path d="M5858 4145 c-25 -8 -75 -34 -110 -58 -201 -134 -263 -478 -123 -685
70 -103 163 -151 307 -159 85 -5 104 -3 160 18 74 27 199 108 222 144 15 23
22 75 10 75 -3 0 -23 -15 -45 -33 -105 -91 -221 -117 -349 -78 -93 29 -162 95
-203 196 -30 73 -44 177 -33 239 l7 36 311 0 311 0 -6 45 c-14 99 -83 192
-179 241 -66 34 -205 43 -280 19z m187 -46 c51 -14 90 -51 111 -106 13 -33 14
-49 6 -67 -12 -26 -47 -31 -305 -43 l-148 -6 7 29 c11 48 33 84 79 130 65 64
158 88 250 63z"/>
<path d="M9910 4132 c-66 -25 -114 -57 -157 -107 -50 -56 -101 -142 -109 -182
-6 -30 -4 -32 29 -38 44 -9 90 14 105 52 6 15 18 52 27 81 9 29 28 65 41 81
34 41 117 74 163 66 97 -18 126 -68 126 -218 l0 -99 -65 -27 c-141 -58 -205
-97 -277 -165 -130 -122 -163 -230 -94 -300 29 -28 34 -30 110 -28 94 2 155
25 255 97 l65 46 11 -39 c14 -54 43 -88 86 -102 42 -14 105 -7 140 17 33 21
84 96 84 122 0 28 -6 27 -47 -9 -40 -36 -82 -39 -109 -9 -18 20 -19 44 -24
339 -6 357 -2 338 -84 404 -36 29 -43 31 -134 33 -72 2 -109 -2 -142 -15z
m225 -562 l-7 -131 -52 -38 c-79 -60 -111 -72 -168 -69 -64 4 -93 36 -91 99 2
52 29 94 103 162 65 60 197 134 213 118 6 -6 6 -62 2 -141z"/>
<path d="M4452 4112 c2 -9 30 -24 71 -37 37 -12 69 -24 71 -26 7 -7 65 -137
181 -404 173 -398 186 -425 205 -425 17 0 130 252 260 580 109 277 92 254 210
274 48 8 66 15 68 29 3 16 -12 17 -217 17 -121 0 -222 -4 -225 -9 -10 -15 18
-30 73 -37 33 -4 63 -15 79 -29 l26 -23 -17 -72 c-22 -91 -116 -339 -172 -449
l-41 -84 -52 114 c-77 172 -202 478 -205 502 -2 18 6 23 48 33 28 7 67 13 87
13 40 1 57 16 39 34 -8 8 -84 12 -252 13 -211 1 -240 0 -237 -14z"/>
<path d="M3100 2496 c-20 -8 -69 -19 -110 -25 -116 -18 -122 -20 -118 -38 2
-9 27 -23 64 -34 33 -10 71 -30 83 -43 23 -25 24 -27 23 -263 0 -131 -1 -243
-1 -250 -1 -9 -11 -8 -38 4 -236 100 -533 9 -627 -192 -111 -238 -30 -518 176
-610 110 -50 214 -44 398 21 52 19 96 34 98 34 1 0 2 -20 2 -45 0 -27 5 -48
13 -50 17 -7 257 41 269 53 19 19 -3 32 -51 32 -32 0 -56 6 -71 18 l-22 17 -3
680 c-1 374 -3 686 -4 693 -1 15 -36 14 -81 -2z m-185 -689 c77 -39 111 -81
124 -151 6 -33 11 -158 11 -278 0 -217 0 -218 -23 -233 -60 -39 -185 -60 -268
-45 -133 24 -221 102 -260 232 -28 90 -23 221 12 313 29 78 106 157 175 179
70 23 166 16 229 -17z"/>
<path d="M4465 2449 c-60 -21 -111 -44 -113 -52 -2 -8 20 -22 53 -36 31 -13
63 -34 71 -46 13 -20 15 -99 12 -604 -2 -453 -6 -583 -16 -593 -7 -7 -47 -19
-90 -28 -55 -11 -77 -19 -77 -30 0 -13 34 -15 235 -17 129 -2 241 -1 249 2 25
10 -8 33 -57 39 -58 8 -101 25 -104 40 -1 6 -2 315 -3 686 l0 675 -25 2 c-14
0 -74 -16 -135 -38z"/>
<path d="M6116 2459 c-174 -19 -311 -83 -426 -198 -79 -80 -159 -197 -190
-279 -10 -27 -26 -88 -35 -136 -14 -74 -15 -103 -5 -203 28 -287 167 -475 422
-573 103 -39 152 -48 292 -56 158 -9 413 22 448 55 11 10 68 231 68 264 0 15
-4 27 -8 27 -5 0 -30 -34 -56 -74 -98 -156 -272 -237 -479 -224 -246 16 -418
187 -463 461 -22 132 -15 330 15 441 52 193 153 326 306 402 73 36 86 39 179
42 56 2 125 -1 159 -9 107 -22 224 -120 259 -215 12 -33 40 -46 53 -24 3 5 3
55 -1 110 l-7 101 -49 25 c-107 54 -315 82 -482 63z"/>
<path d="M3760 1916 c-53 -14 -156 -82 -195 -127 -54 -65 -102 -196 -111 -304
-22 -261 130 -454 371 -472 128 -10 276 50 374 151 37 38 43 49 35 67 -10 21
-11 20 -52 -14 -76 -64 -144 -91 -231 -91 -110 1 -172 24 -242 93 -41 41 -62
72 -79 116 -30 81 -44 173 -36 229 l7 46 312 2 312 3 -3 35 c-6 59 -51 147
-99 191 -71 66 -133 89 -233 88 -47 0 -105 -6 -130 -13z m220 -58 c73 -37 120
-151 72 -177 -13 -7 -340 -31 -421 -31 -29 0 3 88 56 150 64 76 202 103 293
58z"/>
<path d="M7134 1912 c-120 -42 -193 -108 -259 -233 l-37 -71 20 -20 c16 -16
28 -19 56 -14 42 8 72 43 86 100 29 115 87 175 179 184 114 11 164 -55 165
-218 l1 -94 -98 -43 c-135 -60 -216 -113 -286 -189 -85 -93 -111 -181 -74
-245 25 -41 61 -53 152 -46 84 5 127 23 236 96 l60 41 12 -43 c7 -24 24 -53
37 -66 31 -30 109 -45 153 -30 53 17 132 122 118 157 -5 12 -13 8 -43 -21 -44
-43 -79 -47 -110 -14 -22 23 -22 29 -22 323 0 270 -2 303 -19 339 -21 45 -64
89 -101 103 -54 21 -172 23 -226 4z m206 -556 l0 -134 -42 -37 c-125 -107
-248 -112 -274 -11 -20 81 84 205 239 285 33 17 64 31 68 31 5 0 9 -60 9 -134z"/>
<path d="M9285 1924 c-202 -27 -310 -95 -386 -246 -111 -219 -14 -525 200
-631 58 -28 77 -32 163 -35 147 -6 249 31 336 121 26 27 33 41 30 66 l-3 32
-53 -40 c-73 -56 -147 -81 -234 -81 -92 0 -140 23 -212 100 -79 86 -100 154
-94 309 4 101 8 123 32 175 32 66 77 121 115 140 68 35 149 27 207 -21 113
-91 116 -93 153 -93 48 0 81 33 81 79 0 44 -46 87 -114 105 -55 16 -173 26
-221 20z"/>
<path d="M10064 1916 c-70 -23 -121 -54 -171 -103 -59 -59 -125 -169 -121
-203 4 -36 44 -47 91 -25 32 15 38 25 62 98 29 92 35 102 87 141 28 21 52 29
95 33 110 9 151 -45 160 -207 l6 -98 -149 -72 c-129 -63 -158 -82 -215 -139
-121 -122 -150 -230 -78 -295 31 -28 34 -28 118 -24 93 6 149 27 241 92 25 18
50 35 57 39 8 5 16 -6 23 -35 16 -60 43 -85 105 -98 68 -14 107 1 158 61 64
74 66 135 3 75 -48 -44 -85 -48 -115 -10 -20 26 -21 38 -21 326 0 325 -2 341
-56 393 -16 15 -42 33 -59 40 -46 20 -173 26 -221 11z m199 -453 c3 -15 3 -77
0 -138 l-6 -110 -46 -36 c-96 -75 -179 -98 -228 -64 -13 9 -28 33 -34 55 -18
58 22 134 108 204 54 45 172 115 194 116 4 0 9 -12 12 -27z"/>
<path d="M7710 1875 c0 -9 17 -18 43 -25 89 -22 91 -23 99 -65 4 -22 6 -146 6
-275 -2 -291 7 -335 86 -416 107 -110 235 -97 441 45 l60 41 3 -57 c1 -32 4
-68 7 -79 l5 -22 72 22 c40 13 106 31 146 41 57 13 72 21 70 34 -3 12 -18 17
-68 19 -35 2 -71 8 -78 15 -12 9 -14 72 -12 357 1 190 2 353 1 363 -1 15 -16
17 -176 17 -112 0 -175 -4 -175 -10 0 -15 34 -27 118 -40 56 -9 75 -17 85 -33
9 -16 11 -92 10 -292 -3 -312 8 -281 -123 -344 -64 -30 -84 -35 -150 -36 -67
0 -81 3 -119 28 -23 15 -47 40 -54 55 -9 20 -11 115 -10 350 l2 322 -144 0
c-121 0 -145 -2 -145 -15z"/>
</g>
</svg>
